<svg version="1.2" xmlns="http://www.w3.org/2000/svg" viewBox="0 0 3000 936" width="3000" height="936">
	<title>careers-svg</title>
	<style>
		tspan { white-space:pre } 
		.s0 { fill: #a1c5ef } 
		.s1 { fill: #ffffff } 
		.s2 { fill: #e3ecfb } 
		.s3 { fill: #b0713d } 
		.s4 { fill: #fdea53 } 
		.s5 { fill: #ff9c01 } 
		.s6 { fill: #fff200 } 
		.s7 { fill: #000000;stroke: #3f3334;stroke-linecap: round;stroke-width: 13 } 
		.s8 { fill: #3f3334 } 
		.s9 { fill: #99bbeb } 
		.s10 { opacity: .2;fill: #99bbeb } 
		.s11 { fill: #9ec8ff } 
		.s12 { fill: #9bd6e8 } 
		.s13 { fill: #3a384d } 
		.s14 { fill: #f09959 } 
		.s15 { fill: #e38540 } 
		.s16 { fill: #be1e2d } 
		.s17 { fill: #2e2d3d } 
		.s18 { fill: #d5e1e8 } 
		.s19 { fill: #bdccd4 } 
		.s20 { fill: #d54a41 } 
		.s21 { fill: #7a4e34 } 
		.s22 { fill: #0e2d3d } 
		.s23 { fill: #163342 } 
		.s24 { fill: #eea886 } 
		.s25 { fill: #1d3b54 } 
		.s26 { fill: #122456 } 
		.s27 { fill: #162968 } 
		.s28 { fill: #616161 } 
		.s29 { fill: #e0cec7 } 
		.s30 { fill: #eea987 } 
		.s31 { fill: #a77860 } 
		.s32 { fill: #292c47 } 
		.s33 { fill: #424773 } 
		.s34 { fill: #3a3f47 } 
		.s35 { fill: #e2d2ca } 
		.s36 { fill: #323657 } 
		.t37 { font-size: 13px;fill: #000000;font-weight: 400;font-family: "LiberationSans", "Liberation Sans" } 
	</style>
	<g id="Layer">
		<g id="Layer">
			<path id="Layer" fill-rule="evenodd" class="s0" d="m1488.2 342.7c-2.2 11.1-6 21.6-11.1 31.3l16.5 22.6c-4.5 6.9-9.5 13.4-15.1 19.5l-26-10.1c-8.2 7.5-17.4 13.8-27.4 18.8l0.1 28c-7.6 2.9-15.5 5.3-23.6 6.9l-15.2-23.4q-6.7 0.7-13.5 0.7c-6.7 0-13.3-0.5-19.7-1.6l-16.4 22.6c-8-2.1-15.8-4.8-23.2-8.2l1.5-27.9c-9.7-5.5-18.6-12.3-26.3-20.2l-26.6 8.6c-5.2-6.3-9.8-13.1-13.9-20.3l17.6-21.6c-4.6-10-7.8-20.7-9.4-31.9l-26.6-8.6q-0.2-4.2-0.2-8.5q0-8.2 0.9-16.1l26.9-7.2c2.3-11 6-21.5 11.1-31.3l-16.4-22.5c4.4-7 9.5-13.5 15-19.6l26.1 10.1c8.1-7.5 17.3-13.8 27.3-18.8v-28c7.5-2.9 15.4-5.3 23.6-6.9l15.2 23.5q6.6-0.8 13.5-0.8c6.7 0 13.2 0.5 19.6 1.6l16.4-22.6c8.1 2.1 15.8 4.8 23.2 8.2l-1.5 27.9c9.7 5.5 18.6 12.3 26.3 20.2l26.6-8.6c5.2 6.3 9.9 13.1 14 20.3l-17.7 21.6c4.6 10 7.8 20.7 9.4 31.9l26.6 8.6q0.3 4.2 0.3 8.5q0 8.2-0.9 16.1zm-59.2-23.3c0-31-25.1-56.1-56.1-56.1c-31.1 0-56.2 25.1-56.2 56.1c0 31.1 25.1 56.2 56.2 56.2c31 0 56.1-25.1 56.1-56.2z" />
			<g id="Layer">
				<path id="Layer" class="s1" d="m1449.5 383.5c-0.5 0-1-0.2-1.4-0.5c-0.9-0.8-1-2.1-0.2-3c14.1-16.9 21.9-38.5 21.9-60.6c0-10.6-1.8-21-5.2-30.9c-0.4-1.1 0.2-2.3 1.3-2.7c1.1-0.4 2.3 0.2 2.7 1.3c3.6 10.4 5.4 21.3 5.4 32.3c0 23.1-8.2 45.6-22.9 63.3c-0.4 0.5-1 0.8-1.6 0.8z" />
			</g>
			<g id="Layer">
				<path id="Layer" class="s1" d="m1441.3 250.9c-0.5 0-1-0.2-1.4-0.6c-9.5-8.9-20.5-15.7-32.6-20.1c-1.1-0.4-1.7-1.6-1.3-2.7c0.4-1.1 1.6-1.6 2.7-1.2c12.7 4.6 24.2 11.7 34.1 21c0.8 0.8 0.9 2.1 0.1 3c-0.4 0.4-1 0.6-1.6 0.6z" />
			</g>
			<g id="Layer">
				<path id="Layer" class="s1" d="m1351.1 227.5c-0.9 0-1.8-0.6-2-1.6c-0.3-1.1 0.4-2.3 1.5-2.5c7.9-2 16.1-3 24.3-3c1.2 0 2.1 0.9 2.1 2.1c0 1.1-0.9 2.1-2.1 2.1c-7.9 0-15.7 0.9-23.3 2.8q-0.3 0.1-0.5 0.1z" />
			</g>
		</g>
		<g id="Layer">
			<path id="Layer" fill-rule="evenodd" class="s0" d="m1045 696.1c-1.5 7.7-4.1 15-7.6 21.7l11.4 15.6q-4.7 7.3-10.4 13.5l-18.1-6.9c-5.6 5.2-12 9.6-18.9 13v19.4q-7.9 3.1-16.4 4.8l-10.5-16.3q-4.6 0.6-9.3 0.6q-7 0-13.7-1.2l-11.3 15.7q-8.4-2.1-16.1-5.7l1.1-19.3c-6.8-3.8-12.9-8.5-18.3-14l-18.4 6c-3.6-4.4-6.8-9.1-9.6-14l12.2-15.1c-3.2-6.8-5.4-14.2-6.6-22l-18.3-6q-0.2-2.9-0.2-5.9q0-5.6 0.6-11.1l18.7-5c1.5-7.7 4.1-14.9 7.7-21.7l-11.4-15.6q4.6-7.2 10.4-13.5l18 7c5.7-5.2 12-9.6 19-13.1v-19.3q7.8-3.1 16.3-4.9l10.5 16.3q4.6-0.5 9.4-0.6q6.9 0.1 13.6 1.2l11.4-15.7q8.3 2.2 16 5.7l-1 19.3c6.7 3.8 12.8 8.6 18.2 14l18.4-6c3.6 4.4 6.9 9.1 9.7 14.1l-12.2 15c3.1 6.9 5.4 14.3 6.5 22l18.4 6q0.2 2.9 0.2 5.9q0 5.7-0.7 11.1zm-40.9-16.1c0-21.4-17.4-38.9-38.9-38.9c-21.5 0-38.9 17.5-38.9 38.9c0 21.5 17.4 38.9 38.9 38.9c21.5 0 38.9-17.4 38.9-38.9z" />
			<g id="Layer">
				<path id="Layer" class="s1" d="m1018.2 725c-0.4 0-0.9-0.1-1.3-0.5c-0.9-0.7-1-2-0.3-2.9c9.7-11.7 15-26.4 15-41.6c0-7.3-1.2-14.4-3.5-21.2c-0.4-1.1 0.2-2.3 1.3-2.7c1.1-0.3 2.3 0.2 2.7 1.3c2.5 7.3 3.7 14.9 3.7 22.6c0 16.2-5.6 31.9-15.9 44.3c-0.5 0.5-1.1 0.7-1.7 0.7z" />
			</g>
			<g id="Layer">
				<path id="Layer" class="s1" d="m1012.6 633.2c-0.5 0-1-0.2-1.4-0.6c-6.5-6.1-14.1-10.7-22.4-13.8c-1.1-0.4-1.7-1.6-1.3-2.7c0.4-1.1 1.6-1.6 2.7-1.2c8.9 3.2 16.9 8.1 23.8 14.7c0.9 0.8 0.9 2.1 0.1 2.9c-0.4 0.5-0.9 0.7-1.5 0.7z" />
			</g>
			<g id="Layer">
				<path id="Layer" class="s1" d="m950.1 617c-1 0-1.8-0.6-2.1-1.6c-0.2-1.1 0.5-2.3 1.6-2.5c5.5-1.4 11.2-2.1 17-2.1c1.1 0 2.1 0.9 2.1 2.1c0 1.1-1 2.1-2.1 2.1c-5.4 0-10.8 0.6-16 1.9q-0.3 0.1-0.5 0.1z" />
			</g>
		</g>
		<path id="Layer" fill-rule="evenodd" class="s0" d="m1597.6 462.2l10 14.6c-2.6 4.9-5.7 9.5-9.2 13.6l-17.3-3.9c-5.8 5.2-12.7 9.3-20.3 11.8l-5.2 16.9q-6.6 1.2-13.6 1.2q-1.4 0-2.7 0l-7.8-15.9c-7.8-1.5-15.1-4.4-21.6-8.6l-16.4 6.4c-4.2-3.6-7.9-7.8-11.2-12.2l7.6-16.1c-3.4-6.5-5.7-13.8-6.5-21.6l-15.3-8.8c0.2-5.8 1.1-11.4 2.6-16.7l17.3-4.1c3-6.8 7.3-12.9 12.5-18.1l-2.7-17.6c4.6-3.4 9.5-6.3 14.8-8.6l13.9 11.1c5-1.3 10.2-2.1 15.5-2.1q3.3 0 6.4 0.4l12.2-13.1c5.5 1.4 10.8 3.5 15.8 6.1v17.7c6.1 4.4 11.4 10 15.4 16.4l17.8 1.3c2.3 5 4 10.4 5 15.9l-13.7 11q0 1.6 0 3.3c0 6.9-1.2 13.5-3.3 19.7zm-31.4-18.6c0-13.7-11.1-24.8-24.8-24.8c-13.7 0-24.8 11.1-24.8 24.8c0 13.7 11.1 24.8 24.8 24.8c13.7 0 24.8-11.1 24.8-24.8z" />
	</g>
	<path id="Layer" class="s2" d="m1723 174.3l0.7 0.7h-182.3v-0.1c-19.2-0.8-34.6-16.7-34.6-36.2c0-20.1 16.3-36.3 36.3-36.3c4.2 0 8.2 0.7 11.9 2c5.4-13.5 18.5-23 33.8-23q3.8 0 7.4 0.8q0-0.4 0-0.8c0-20 16.3-36.3 36.3-36.3c12.5 0 23.5 6.3 30 15.9c14.8 0.4 27.4 9.7 32.6 22.7c3.9-1.5 8.2-2.3 12.7-2.3c20 0 36.3 16.3 36.3 36.3c0 7.1-2.1 13.8-5.6 19.4c9.7 3.7 16 9.9 16 17c0 10.3-13.7 18.9-31.5 20.2z" />
	<path id="Layer" class="s2" d="m883.6 151.8l0.6 0.7h-182.2c-19.3-0.9-34.6-16.8-34.6-36.3c0-20.1 16.2-36.3 36.3-36.3c4.2 0 8.2 0.7 11.9 2c5.3-13.5 18.4-23 33.8-23q3.8 0 7.4 0.8q0-0.4 0-0.8c0-20 16.2-36.3 36.3-36.3c12.5 0 23.5 6.3 30 15.9c14.8 0.4 27.3 9.7 32.6 22.7c3.9-1.5 8.2-2.3 12.6-2.3c20.1 0 36.4 16.3 36.4 36.3c0 7.2-2.1 13.8-5.6 19.4c9.6 3.7 16 9.9 16 17c0 10.3-13.8 18.9-31.5 20.2z" />
	<g id="Layer">
		<g id="Layer">
			<g id="Layer">
				<path id="Layer" class="s3" d="m1265.5 862.3l138.1-76.6l76.4 47.8l-140 75.9z" />
				<g id="Layer">
					<path id="Layer" class="s3" d="m1713 434.4l-233 399.1l-76.4-47.8l236.3-399.1z" />
				</g>
				<path id="Layer" class="s3" d="m1639.9 386.6l149.3 26.2l69.7 46.9l-145.9-25.3z" />
				<g id="Layer">
					<path id="Layer" class="s3" d="m1789.2 412.8l205.6-292.4l79.3 41.2l-215.2 298.1z" />
				</g>
				<path id="Layer" class="s3" d="m1994.8 120.4l-31.1-22.2l134.9-58.1l3 142.9z" />
			</g>
		</g>
		<g id="Layer">
			<path id="Layer" class="s4" d="m1260.1 854.5l138-76.6l76.5 47.8l-140.1 75.9l-169.1-4.5z" />
			<path id="Layer" class="s5" d="m1707.5 426.5l-232.9 399.2l-76.5-47.8l236.4-399.1z" />
			<path id="Layer" class="s4" d="m1634.5 378.8l149.2 26.2l69.7 46.9l-145.9-25.4z" />
			<path id="Layer" class="s6" d="m1783.7 405l205.6-292.4l79.4 41.2l-215.3 298.1z" />
			<path id="Layer" class="s6" d="m1989.3 112.6l-31.1-22.2l135-58.1l3 142.9z" />
		</g>
	</g>
	<path id="Layer" class="s2" d="m2342.4 229.6l0.7 0.6h-182.3c-19.2-0.9-34.6-16.8-34.6-36.3c0-20 16.3-36.3 36.3-36.3c4.2 0 8.2 0.7 11.9 2c5.4-13.4 18.5-22.9 33.8-22.9q3.8 0 7.4 0.7q0-0.4 0-0.7c0-20.1 16.3-36.3 36.3-36.3c12.5 0 23.5 6.3 30 15.9c14.8 0.4 27.4 9.7 32.6 22.7c3.9-1.5 8.2-2.3 12.7-2.3c20 0 36.3 16.2 36.3 36.3c0 7.1-2.1 13.7-5.6 19.4c9.7 3.6 16 9.8 16 16.9c0 10.4-13.7 19-31.5 20.3z" />
	<g id="Layer">
		<path id="Layer" class="s2" d="m2329.3 901.9h-26.8l11.3-474.9h15.5z" />
		<path id="Layer" class="s2" d="m2373.2 432.5l0.4 0.4h-103.9h0.1c-11-0.5-19.8-9.6-19.8-20.7c0-10.1 7.3-18.5 16.9-20.3c-1.3-3.2-2-6.7-2-10.4c0-15.4 12.5-27.9 27.9-27.9c7.4 0 14.2 3 19.2 7.7c2.9-1.5 6.2-2.4 9.7-2.4c7.1 0 13.4 3.6 17.1 9.1c8.4 0.2 15.6 5.5 18.5 12.9c2.3-0.8 4.7-1.3 7.3-1.3c11.4 0 20.7 9.3 20.7 20.7c0 4.1-1.2 7.8-3.2 11c5.5 2.1 9.1 5.7 9.1 9.7c0 5.9-7.8 10.8-18 11.5z" />
		<path id="Layer" class="s2" d="m2322.4 553.1c-2.3 9.5-11.3 12.5-20.1 12.9c-7.4 0.2-14.7 0-22.1-0.2c0.4 2.6 1.6 7.1 5.4 11.1c6 6.3 16.1 9.5 30.1 9.5v4c-15.2 0-26.3-3.6-33.1-10.8c-4.8-5.1-6.1-10.8-6.5-13.9c-4.5-0.1-32.8 2.3-37.7-5.7c-1.9-3-1.7-7.6 0.8-10.3c1.4-1.4 11-3.4 10.8-2.6c1.3-6.6-0.3-12.3 4.6-18.3c11.2-14.1 35-7.4 36.9 10.7c7.2-3 16.2-6.8 23.8-2.7c5.9 3.2 8.6 9.8 7.1 16.3z" />
		<path id="Layer" class="s2" d="m2322.4 689.8c-1.8 7.7-9 10.1-16 10.4c-5.9 0.2-11.8 0-17.7-0.2c0.3 2.1 1.3 5.7 4.4 8.9c4.8 5.1 12.8 7.6 24 7.6v3.2c-12.1 0-21-2.9-26.4-8.6c-3.9-4.2-4.9-8.7-5.2-11.1c-3.6-0.1-26.2 1.8-30.1-4.6c-1.6-2.4-1.4-6.1 0.6-8.2c1.1-1.2 8.8-2.7 8.6-2.1c1.1-5.3-0.2-9.8 3.7-14.7c8.9-11.2 27.9-5.8 29.5 8.6c5.8-2.4 12.9-5.4 19-2.1c4.7 2.5 6.9 7.8 5.6 12.9z" />
		<path id="Layer" class="s2" d="m2318.1 471.8c-1.8 7.7-9 10.1-16 10.4c-5.9 0.2-11.8 0-17.7-0.2c0.3 2.1 1.3 5.7 4.4 8.9c4.8 5.1 12.9 7.6 24 7.6v3.2c-12.1 0-21-2.9-26.4-8.6c-3.9-4.2-4.9-8.7-5.2-11.1c-3.6-0.1-26.2 1.8-30.1-4.6c-1.6-2.4-1.4-6.1 0.6-8.2c1.1-1.2 8.8-2.7 8.6-2.1c1.1-5.3-0.2-9.8 3.7-14.7c8.9-11.2 27.9-5.8 29.5 8.6c5.8-2.4 12.9-5.4 19-2.1c4.7 2.5 6.9 7.8 5.6 12.9z" />
		<path id="Layer" class="s2" d="m2327.7 482.7c7.6-4.1 16.5-0.3 23.8 2.7c1.9-18.1 25.7-24.8 36.9-10.8c4.8 6.1 3.2 11.8 4.6 18.4c-0.2-0.8 9.4 1.2 10.8 2.6c2.5 2.7 2.7 7.3 0.8 10.3c-5 8-33.2 5.6-37.7 5.7c-0.4 3.1-1.7 8.7-6.6 13.9c-6.7 7.2-17.9 10.8-33 10.8v-4c14 0 24.1-3.2 30.1-9.5c3.8-4 5-8.5 5.4-11.1c-7.4 0.2-14.8 0.4-22.1 0.2c-8.8-0.4-17.8-3.4-20.1-13c-1.5-6.4 1.2-13 7.1-16.2z" />
		<path id="Layer" class="s2" d="m2330.3 614.7c7.6-4.1 16.5-0.4 23.8 2.7c1.9-18.1 25.7-24.8 36.9-10.8c4.8 6.1 3.2 11.8 4.6 18.4c-0.2-0.8 9.4 1.2 10.7 2.6c2.5 2.7 2.8 7.2 0.8 10.3c-4.9 8-33.2 5.6-37.7 5.7c-0.3 3.1-1.6 8.7-6.5 13.9c-6.8 7.2-17.9 10.8-33 10.8v-4c13.9 0 24-3.2 30-9.5c3.9-4 5.1-8.5 5.5-11.1c-7.4 0.2-14.8 0.4-22.1 0.2c-8.9-0.4-17.8-3.4-20.1-13c-1.5-6.4 1.2-13 7.1-16.2z" />
	</g>
	<g id="Layer">
		<path id="Layer" class="s2" d="m562.9 889.9h-26.8l11.3-474.9h15.5z" />
		<path id="Layer" class="s2" d="m606.8 420.5l0.4 0.4h-103.9h0.1c-11-0.5-19.8-9.6-19.8-20.7c0-10.1 7.3-18.5 16.9-20.3c-1.3-3.2-2-6.7-2-10.4c0-15.4 12.5-27.9 27.8-27.9c7.5 0 14.3 3 19.3 7.7c2.9-1.5 6.2-2.4 9.7-2.4c7.1 0 13.4 3.6 17.1 9.1c8.4 0.2 15.5 5.5 18.5 12.9c2.3-0.8 4.7-1.3 7.3-1.3c11.4 0 20.6 9.3 20.6 20.7c0 4.1-1.1 7.8-3.1 11c5.5 2.1 9.1 5.7 9.1 9.7c0 5.9-7.8 10.8-18 11.5z" />
		<path id="Layer" class="s2" d="m556 541.1c-2.3 9.5-11.3 12.5-20.1 12.9c-7.4 0.2-14.8 0-22.1-0.2c0.3 2.6 1.6 7.1 5.4 11.1c6 6.3 16.1 9.5 30.1 9.5v4c-15.2 0-26.3-3.6-33.1-10.8c-4.8-5.1-6.1-10.8-6.5-13.9c-4.5-0.1-32.8 2.3-37.7-5.7c-1.9-3-1.7-7.6 0.8-10.3c1.4-1.4 11-3.4 10.8-2.6c1.3-6.6-0.3-12.3 4.6-18.3c11.2-14.1 35-7.4 36.9 10.7c7.2-3 16.2-6.8 23.8-2.7c5.8 3.2 8.6 9.8 7.1 16.3z" />
		<path id="Layer" class="s2" d="m556 677.8c-1.8 7.7-9 10.1-16 10.4c-5.9 0.2-11.8 0-17.7-0.2c0.3 2.1 1.3 5.7 4.4 8.9c4.8 5.1 12.8 7.6 24 7.6v3.2c-12.1 0-21-2.9-26.4-8.6c-3.9-4.2-4.9-8.7-5.2-11.1c-3.6-0.1-26.2 1.8-30.1-4.6c-1.6-2.4-1.4-6.1 0.6-8.2c1.1-1.2 8.8-2.7 8.6-2.1c1.1-5.3-0.2-9.8 3.7-14.7c8.9-11.2 27.9-5.8 29.5 8.6c5.8-2.4 12.9-5.4 19-2.1c4.7 2.5 6.9 7.8 5.6 12.9z" />
		<path id="Layer" class="s2" d="m551.7 459.8c-1.8 7.7-9 10.1-16 10.4c-5.9 0.2-11.8 0-17.7-0.2c0.3 2.1 1.3 5.7 4.4 8.9c4.8 5.1 12.8 7.6 24 7.6v3.2c-12.1 0-21-2.9-26.4-8.6c-3.9-4.2-4.9-8.7-5.2-11.1c-3.6-0.1-26.2 1.8-30.2-4.6c-1.5-2.4-1.3-6.1 0.7-8.2c1.1-1.2 8.7-2.7 8.6-2.1c1.1-5.3-0.2-9.8 3.7-14.7c8.9-11.2 27.9-5.8 29.5 8.6c5.8-2.4 12.9-5.4 19-2.1c4.7 2.5 6.9 7.8 5.6 12.9z" />
		<path id="Layer" class="s2" d="m561.3 470.7c7.6-4.1 16.5-0.3 23.8 2.7c1.9-18.1 25.7-24.8 36.9-10.8c4.8 6.1 3.2 11.8 4.6 18.4c-0.2-0.8 9.4 1.2 10.7 2.6c2.6 2.7 2.8 7.3 0.9 10.3c-5 8-33.3 5.6-37.8 5.7c-0.3 3.1-1.6 8.7-6.5 13.9c-6.7 7.2-17.9 10.8-33 10.8v-4c13.9 0 24.1-3.2 30.1-9.5c3.8-4 5-8.5 5.4-11.1c-7.4 0.2-14.8 0.4-22.1 0.2c-8.8-0.4-17.8-3.4-20.1-13c-1.5-6.4 1.2-13 7.1-16.2z" />
		<path id="Layer" class="s2" d="m563.9 602.7c7.6-4.1 16.5-0.4 23.8 2.7c1.9-18.1 25.7-24.8 36.9-10.8c4.8 6.1 3.2 11.8 4.6 18.4c-0.2-0.8 9.4 1.2 10.7 2.6c2.5 2.7 2.8 7.2 0.8 10.3c-4.9 8-33.2 5.6-37.7 5.7c-0.3 3.1-1.6 8.7-6.5 13.9c-6.8 7.2-17.9 10.8-33 10.8v-4c13.9 0 24-3.2 30-9.5c3.9-4 5.1-8.5 5.5-11.1c-7.4 0.2-14.8 0.4-22.1 0.2c-8.9-0.4-17.8-3.4-20.1-13c-1.5-6.4 1.2-13 7.1-16.2z" />
	</g>
	<path id="Shape 1" class="s7" d="m24 893h2955v10h-2955z" />
	<path id="Layer" class="s8" d="m679.2 251.7h256.6v433h-256.6z" />
	<path id="Layer" class="s9" d="m900.8 331.9h-89.9c-4.2 0-7.7-3.5-7.7-7.7c0-4.2 3.5-7.6 7.7-7.6h89.9c4.3 0 7.7 3.4 7.7 7.6c0 4.2-3.4 7.7-7.7 7.7z" />
	<path id="Layer" class="s9" d="m793.6 471.8h-89.9c-4.2 0-7.7-3.5-7.7-7.7c0-4.2 3.5-7.6 7.7-7.6h89.9c4.2 0 7.7 3.4 7.7 7.6c0 4.3-3.5 7.7-7.7 7.7z" />
	<path id="Layer" class="s9" d="m793.6 508.6h-89.9c-4.2 0-7.7-3.5-7.7-7.7c0-4.2 3.5-7.7 7.7-7.7h89.9c4.2 0 7.7 3.5 7.7 7.7c0 4.2-3.5 7.7-7.7 7.7z" />
	<path id="Layer" class="s9" d="m793.6 545.3h-89.9c-4.2 0-7.7-3.4-7.7-7.6c0-4.2 3.5-7.7 7.7-7.7h89.9c4.2 0 7.7 3.5 7.7 7.7c0 4.2-3.5 7.6-7.7 7.6z" />
	<path id="Layer" class="s9" d="m900.8 363.5h-89.9c-4.2 0-7.7-3.4-7.7-7.6c0-4.2 3.5-7.7 7.7-7.7h89.9c4.3 0 7.7 3.5 7.7 7.7c0 4.2-3.4 7.6-7.7 7.6z" />
	<path id="Layer" class="s9" d="m900.8 395.2h-89.9c-4.2 0-7.7-3.4-7.7-7.7c0-4.2 3.5-7.6 7.7-7.6h89.9c4.3 0 7.7 3.4 7.7 7.6c0 4.3-3.4 7.7-7.7 7.7z" />
	<path id="Layer" class="s9" d="m920.3 576.8h-218.8c-2.4 0-4.4-2-4.4-4.4c0-2.5 2-4.5 4.4-4.5h218.8c2.5 0 4.5 2 4.5 4.5c0 2.4-2 4.4-4.5 4.4z" />
	<path id="Layer" class="s9" d="m920.3 597.5h-218.8c-2.4 0-4.4-2-4.4-4.5c0-2.4 2-4.4 4.4-4.4h218.8c2.5 0 4.5 2 4.5 4.4c0 2.5-2 4.5-4.5 4.5z" />
	<path id="Layer" class="s9" d="m920.3 618.1h-218.8c-2.4 0-4.4-2-4.4-4.4c0-2.5 2-4.5 4.4-4.5h218.8c2.5 0 4.5 2 4.5 4.5c0 2.4-2 4.4-4.5 4.4z" />
	<path id="Layer" class="s8" d="m1307.7 238.7h256.6v433h-256.6z" />
	<path id="Layer" class="s9" d="m1469.3 468.7h-65.8c-4.2 0-7.7-3.4-7.7-7.7c0-4.2 3.5-7.6 7.7-7.6h65.8c4.2 0 7.7 3.4 7.7 7.6c0 4.3-3.5 7.7-7.7 7.7z" />
	<path id="Layer" class="s9" d="m1481.3 492.2h-89.9c-4.2 0-7.7-3.4-7.7-7.6c0-4.2 3.5-7.7 7.7-7.7h89.9c4.3 0 7.7 3.5 7.7 7.7c0 4.2-3.4 7.6-7.7 7.6z" />
	<path id="Layer" class="s9" d="m1545.8 576.8h-218.8c-2.5 0-4.5-2-4.5-4.4c0-2.5 2-4.5 4.5-4.5h218.8c2.4 0 4.4 2 4.4 4.5c0 2.4-2 4.4-4.4 4.4z" />
	<path id="Layer" class="s9" d="m1545.8 597.5h-218.8c-2.5 0-4.5-2-4.5-4.5c0-2.4 2-4.4 4.5-4.4h218.8c2.4 0 4.4 2 4.4 4.4c0 2.5-2 4.5-4.4 4.5z" />
	<path id="Layer" class="s9" d="m1545.8 618.1h-218.8c-2.5 0-4.5-2-4.5-4.4c0-2.5 2-4.5 4.5-4.5h218.8c2.4 0 4.4 2 4.4 4.5c0 2.4-2 4.4-4.4 4.4z" />
	<path id="Layer" class="s10" d="m1324.5 684.6h-442.7l31.3-453.5h427.4z" />
	<g id="Layer">
		<path id="Layer" class="s11" d="m867.1 816.7v-11c0-2.8 2.3-5 5.1-5h13.2c2.8 0 5.1 2.3 5.1 5v11c0 2.8-2.3 5-5.1 5h-13.2c-2.8 0-5.1-2.2-5.1-5z" />
		<path id="Layer" class="s11" d="m824.5 816.7v-11c0-2.8 2.3-5 5.1-5h13.3c2.8 0 5.1 2.3 5.1 5v11c0 2.8-2.3 5-5.1 5h-13.3c-2.8 0-5.1-2.2-5.1-5z" />
		<path id="Layer" class="s11" d="m782 816.7v-11c0-2.8 2.3-5 5.1-5h13.2c2.8 0 5.1 2.3 5.1 5v11c0 2.8-2.3 5-5.1 5h-13.2c-2.8 0-5.1-2.2-5.1-5z" />
	</g>
	<g id="Layer">
		<path id="Layer" class="s1" d="m790.7 386.5h-83.1v-73.2c0-2.4 2-4.4 4.4-4.4h78.7z" />
		<g id="Layer">
			<path id="Layer" class="s12" d="m724 385.1c4.7-10.3 12.8-13.6 26.1-13.6c15.8 0 24.1 5.7 26.4 14c-28.4 0.4-52.5-0.5-52.5-0.5z" />
			<path id="Layer" class="s13" d="m756.6 322.6c2.9 1 5.5 0.8 9.1 3c5.9 3.4 4.1 9.2 5.7 12.5c1.5 3.3 7.3 7.1 7.3 12.1c0 4.6-4.4 10.1-4 12.8c0.3 2.7-3.4 6.8-9 6.6c-5.5-0.2-15.5 2.9-18.6 1.5c-3.1-1.3-9.3-2.3-12.6-2.9c-3.3-0.5-6-4.6-6.2-5.2c-0.2-0.6-2.4-4.9-3.3-7.6c-1-2.7-0.2-4 2.3-6.8c2.5-2.7 0.4-7.5 1-9.9c0.6-2.3 5.4-4.6 7.6-8.1c2.3-3.5 2-7.3 8.7-9.2c4.2-1.2 9.1 0.3 12 1.2z" />
			<path id="Layer" class="s14" d="m752.7 379.7c-1.5 2.2-2.6 2.3-4.2 0c-1.3-1.9-3.9-6.1-3.9-8.2v-21.3c0-2.1 1.7-3.9 3.9-3.9h4.2c2.2 0 3.9 1.8 3.9 3.9v21.3c0 2.1-2.5 6.2-3.9 8.2z" />
			<path id="Layer" class="s15" d="m756.6 350.2v14.1c-2.9 3.4-7.2 6.4-12 4.9v-19c0-2.1 1.7-3.9 3.9-3.9h4.2c2.2 0 3.9 1.8 3.9 3.9z" />
			<path id="Layer" class="s14" d="m750.6 364.1c-7.1 0-12.9-7.9-12.9-17.6c0-9.7 5.8-17.6 12.9-17.6c7.1 0 12.9 7.9 12.9 17.6c0 9.7-5.8 17.6-12.9 17.6z" />
			<path id="Layer" class="s13" d="m756.6 325.6c-8.1 13.8-20.2 19.3-20.2 19.3c0 0 0.3-18.2 9.9-19.2c9.5-0.9 15.2 2.9 17.1 9.2c1.9 6.4 0 10.5 0 10.5c0 0-3.1-2.4-4.7-6.3c-1.5-3.9-2.1-13.5-2.1-13.5z" />
			<path id="Layer" class="s14" d="m738.1 352.3c-1.7 0.8-4-0.6-5.2-3.1c-1.2-2.6-0.8-5.3 0.9-6.1c1.7-0.8 4 0.6 5.2 3.1c1.2 2.6 0.8 5.3-0.9 6.1z" />
			<path id="Layer" class="s14" d="m766.8 343.1c1.7 0.8 2.1 3.5 0.9 6.1c-1.2 2.5-3.5 3.9-5.2 3.1c-1.7-0.8-2.1-3.5-0.9-6.1c1.2-2.5 3.6-3.9 5.2-3.1z" />
			<path id="Layer" class="s1" d="m755.5 356.1c0-0.1-2.2 2.8-4.9 2.8c-2.7 0-4.8-2.9-4.8-2.9z" />
		</g>
		<g id="Layer">
			<path id="Layer" fill-rule="evenodd" class="s16" d="m788.7 387.6h-78c-2.2 0-4-1.8-4-4v-71.8c0-2.2 1.8-4 4-4h78c2.1 0 3.9 1.8 3.9 4v71.8c0 2.2-1.8 4-3.9 4zm-78-76.6c-0.4 0-0.8 0.4-0.8 0.8v71.8c0 0.4 0.4 0.8 0.8 0.8h78c0.4 0 0.7-0.4 0.7-0.8v-71.8c0-0.4-0.3-0.8-0.7-0.8z" />
		</g>
	</g>
	<path id="Layer" class="s8" d="m948.3 158.1h350.5v591.3h-350.5z" />
	<path id="Layer" class="s1" d="m1152.8 401.8h-173v-150.2c0-5.1 4.1-9.2 9.2-9.2h163.8z" />
	<path id="Layer" class="s1" d="m1516.7 436.1h-160v-142.9c0-4.7 3.8-8.6 8.5-8.6h151.5z" />
	<g id="Layer">
		<path id="Layer" class="s17" d="m1041.5 314.9c-0.2-0.6-4.8-27.1-5.3-37.4c-0.6-10.3 14.8-17.4 14.8-17.4c14.9-9.3 37.1 1.7 47.4 20.4c4.6 8.1-4 33.4-4 33.4z" />
		<path id="Layer" class="s18" d="m1009.8 400c-1.8-30.1 24.3-39.8 57.6-39.4c38.6-0.7 57.8 9.6 58.6 40.5c-58.9 0.8-116.2-1.1-116.2-1.1z" />
		<path id="Layer" class="s14" d="m1072.9 377.6c-3.2 4.7-5.5 4.9-8.9 0c-2.7-3.8-11.8-12.6-11.8-17l3.7-44.2c0-4.4 3.7-8 8.1-8c6.2-0.2 17.1-1.1 16.9 8l1.8 44.2c-0.1 4.4-7 12.9-9.8 17z" />
		<path id="Layer" class="s15" d="m1080.9 316.4l1.1 28.9c-5.9 7.1-19.3 13.5-29.3 10.3l3.2-39.2c-0.1-9 10.7-8.3 17-8c4.4 0 8 3.6 8 8z" />
		<path id="Layer" class="s19" d="m1040.6 363.3l27.8 13.7l26-14l3.5 0.8l-15.9 25.3c0 0-5.1-4.7-6.8-4.7c-1.7 0 2.4 16.1 1.7 16.9c-0.8 0.7-17.7 0.5-17.7 0.5c0 0 2.1-15.5 1.4-16.7c-0.8-1.3-8.4 5-8.4 5l-14.2-26.3z" />
		<path id="Layer" class="s20" d="m1058.4 372.1h18.5l4.1 3.8l-8.8 8l3.6 17.1l-14.3 0.8l3.3-18.8l-10.5-7.1z" />
		<path id="Layer" class="s18" d="m1082.4 349.7l12.6 13.4l-12.4 22l-10.6-11.2l-6.8 0.1c0 0-10.5 13-11.3 13c-0.7 0-14-23.6-14-23.6l13.1-12.4c17 27.1 14.2 26.9 29.4-1.3z" />
		<path id="Layer" class="s14" d="m1095.2 308.8c-0.7 48.1-52.9 48-53.6 0c0.7-48 52.9-48 53.6 0z" />
		<path id="Layer" class="s14" d="m1044.4 308.3c6 12.3-7 18.5-12.8 6c-6-12.4 7-18.5 12.8-6.1z" />
		<path id="Layer" class="s14" d="m1091.3 308.3c-6 12.3 6.9 18.5 12.7 6c6-12.4-7-18.5-12.7-6.1z" />
		<path id="Layer" class="s1" d="m1080.3 323.8c-6.6 11.1-17.2 11.1-23.8 0z" />
		<path id="Layer" class="s17" d="m1047.4 305.1c-1.7 2.1-2 12-4.3 11.1c-2.3-1-1.5-28.9-1.5-28.9c16-23.1 41.3-25 54.9 2.7l-1.3 13.2c-19.1-0.1-20.5-36.4-42.5-19.2c-8.7 3.3-3.7 16.4-5.3 21.1z" />
		<path id="Layer" class="s17" d="m1094.9 301.4c0.5 1.7-0.2 17.5-2.3 17.7c-2 0.2-0.5-16.5-4.4-20.8c0 0 6.1 1.5 6.7 3.2z" />
	</g>
	<path id="Layer" class="s9" d="m1148.3 455.4h-163.6c-5.7 0-10.4-4.8-10.4-10.5c0-5.8 4.7-10.5 10.4-10.5h163.6c13.5-0.1 13.6 21.1 0 21z" />
	<path id="Layer" class="s9" d="m1127.9 487.5h-122.8c-5.8 0-10.5-4.7-10.5-10.5c0-5.7 4.7-10.4 10.5-10.4h122.8c13.5-0.2 13.6 21.1 0 20.9z" />
	<path id="Layer" class="s9" d="m1273.1 639.8h-298.8c-3.4 0-6.1-2.7-6.1-6.1c0-3.3 2.7-6 6.1-6h298.8c7.8-0.1 7.9 12.2 0 12.1z" />
	<path id="Layer" class="s9" d="m1274.1 537.7h-298.8c-3.4 0-6.1-2.8-6.1-6.1c0-3.3 2.7-6.1 6.1-6.1h298.8c7.8-0.1 8 12.3 0 12.2z" />
	<path id="Layer" class="s9" d="m1273.1 668h-298.8c-3.4 0-6.1-2.7-6.1-6.1c0-3.3 2.7-6 6.1-6h298.8c7.8-0.1 7.9 12.2 0 12.1z" />
	<path id="Layer" class="s9" d="m1273.1 696.2h-298.8c-3.4 0-6.1-2.7-6.1-6.1c0-3.3 2.7-6 6.1-6h298.8c7.8-0.1 7.9 12.2 0 12.1z" />
	<g id="Layer">
		<path id="Layer" fill-rule="evenodd" class="s16" d="m1147.5 404.2h-162c-4 0-7.2-3.3-7.2-7.3v-149.2c0-4 3.2-7.3 7.2-7.3h162c4 0 7.2 3.3 7.2 7.3v149.2c0 4-3.2 7.3-7.2 7.3zm-162-158.9c-1.3 0-2.4 1.1-2.4 2.4v149.2c0 1.4 1.1 2.5 2.4 2.5h162c1.3 0 2.4-1.1 2.4-2.5v-149.2c0-1.3-1.1-2.4-2.4-2.4z" />
	</g>
	<g id="Layer">
		<path id="Layer" class="s21" d="m1477.9 367.6c-1.1 9-7.6 40.6-36.8 41.7c-29.3 1.1-41.7-32.2-41.7-52.8c0 0 79.7 2.2 78.5 11.1z" />
		<path id="Layer" class="s20" d="m1387.2 436.7c9.7-20.7 26-27.4 52.9-27.4c32 0 48.6 11.6 53.3 28.4c-57.3 0.8-106.2-1-106.2-1z" />
		<path id="Layer" class="s14" d="m1445.4 425.9c-3.1 4.5-5.3 4.7-8.6 0c-2.7-3.8-7.9-12.3-7.9-16.6v-43c0-4.3 3.6-7.8 7.9-7.8h8.6c4.3 0 7.8 3.5 7.8 7.8v43c0 4.3-5.1 12.5-7.8 16.6z" />
		<path id="Layer" class="s15" d="m1453.2 366.3v28.4c-5.8 6.9-14.6 13.1-24.3 10v-38.4c0-4.3 3.6-7.9 7.9-7.9h8.6c4.3 0 7.8 3.6 7.8 7.9z" />
		<path id="Layer" class="s14" d="m1441.1 394.4c-14.4 0-26.1-15.9-26.1-35.5c0-19.7 11.7-35.5 26.1-35.5c14.4 0 26 15.8 26 35.5c0 19.6-11.6 35.5-26 35.5z" />
		<path id="Layer" class="s21" d="m1447.4 341.8c-3.1 10.9-13.1-1.4-22.5 2.2c-9.5 3.6-2.8 9.5-5.9 16.4c-4 9 1.8 34.9 1.8 34.9c0 0-24-17.9-21.2-46.1c2.7-28.2 19.4-39.1 35-39.1c15.7 0 21.6 9.5 21.6 9.5c0 0 8.4 0 16.3 9.4c10.6 12.5 7.3 43 0 54c-7.4 10.9-12.3 14.3-12.1 13.8c0.2-0.5 6.8-25.6 3.3-41.1c-3.6-15.5-16.3-13.9-16.3-13.9z" />
		<path id="Layer" class="s1" d="m1450.9 378.1c0 0-4.4 5.7-9.8 5.7c-5.4 0-9.8-5.7-9.8-5.7z" />
	</g>
	<g id="Layer">
		<path id="Layer" fill-rule="evenodd" class="s16" d="m1515.2 443.6h-157.6c-4.4 0-7.9-3.6-7.9-7.9v-145.3c0-4.4 3.5-7.9 7.9-7.9h157.6c4.3 0 7.9 3.5 7.9 7.9v145.2c0 4.4-3.6 8-7.9 8zm-157.6-154.7c-0.8 0-1.5 0.7-1.5 1.5v145.3c0 0.8 0.7 1.4 1.5 1.4h157.6c0.8 0 1.5-0.6 1.5-1.4v-145.3c0-0.8-0.7-1.5-1.5-1.5z" />
	</g>
	<g id="Layer">
		<g id="Layer">
			<g id="Layer">
				<g id="Layer">
					<g id="Layer">
						<g id="Layer">
							<path id="Layer" class="s22" d="m1797 294.6c0 0 19.5 9.5 14.7 35.5c-4.8 25.9-7 29.4-1.6 39.6c5.4 10.1 11.8 53.4 7 61.6c-4.9 8.2-60.2-36-67.8-73.2c-7.7-37.1 4.8-53.6 9.3-59.8c4.4-6.1 21.2-12.5 38.4-3.7z" />
						</g>
					</g>
				</g>
			</g>
		</g>
		<g id="Layer">
			<path id="Layer" class="s23" d="m1786.4 873.9c-1.2-1.6-4.2-18.2 6.3-26.9c10.5-8.7 12.7 0 12.7 0c0 0 1.9 4.7 5.7 9.5c2.7 3.6 11.2 18.2 14.9 19.2c3.8 1.1 15.3 3.1 16.4 9.6c1 6.4 1.5 11-9.9 11.5c-11.4 0.5-18.9 1.2-24.3-6.8c-5.5-8-14.1-13.8-14.1-13.8v20.9h-4.4c0 0-2.1-21.7-3.3-23.2z" />
		</g>
		<g id="Layer">
			<path id="Layer" class="s24" d="m1790.3 849.4c0 0 4.3-8.7 15.1-2.4c0 0 17.8 25 20.7 28.7c0 0-10.3 2.6-14.2 0c-3.9-2.5-17.2-25-21.6-26.3z" />
		</g>
		<g id="Layer">
			<g id="Layer">
				<g id="Layer">
					<g id="Layer">
						<path id="Layer" class="s24" d="m1925.6 491c0 0 7.1 1.4 9.5-2c2.1-2.8 6.8-5 8.2-5.6c2-0.9 6.9-5.9 8-3.5c1.2 2.5-7.7 8.6-9.3 10.3c-1.6 1.6 8.7 2.4 10.5 4c1.8 1.6-0.4 18.6-7.4 17.2c-7-1.3-13.6-7.3-14.9-7.3c-1.3 0-5.1-0.8-5.1-0.8z" />
					</g>
				</g>
			</g>
		</g>
		<g id="Layer">
			<g id="Layer">
				<g id="Layer">
					<g id="Layer">
						<path id="Layer" class="s24" d="m1950.9 493.5c0 0 21.2 5.5 22.3 7c1.1 1.5 0.7 2.7-1.3 2.3c-2-0.5-20.5-4.7-20.5-4.7c0 0 23.9 10.6 25.1 11.7c0.7 0.6 0.1 2.9-1 2.7c-1.1-0.1-25.4-9.3-25.4-9.3c0 0 22.3 10 23 11.2c0.7 1-0.4 2.9-2.1 2.3c-1.7-0.6-22.9-8.8-22.9-8.8c0 0 15.8 8.4 15.8 9.7c0 0.9-0.4 2.8-4.4 0.5c-4-2.2-14.1-6.6-14.1-6.6z" />
					</g>
				</g>
			</g>
		</g>
		<g id="Layer">
			<path id="Layer" class="s23" d="m1731.5 881c-0.2-2.7-2-13.2 3.8-17.8c5.7-4.7 13-2.7 13-2.7c0 0 11.4 16.9 16 21c0 0 10.2 3.8 11.2 10.9c1.1 7.1 0.9 11.9-11.2 12.2c-12.1 0.4-20-1.8-22.2-9.1c-2.2-7.3-7-12.3-7-12.3v15.3h-2.8c0 0-0.6-14.8-0.8-17.5z" />
		</g>
		<g id="Layer">
			<path id="Layer" class="s25" d="m1785.1 589.8c0 16-31.9 109.8-32.4 113.3c-0.5 3.6-3.1 35.2-4.4 43.9c-1.2 8.7 0 113.5 0 113.5l-22 4.4c0 0-8.1-102.9-10.1-123.5c-2-20.7 8.2-48 8.3-59c0.2-10.9-6-85.4-2.1-107.6c3.9-22.2 18.3-40.9 18.3-40.9c34.7-26.1 44.4 39.9 44.4 55.9z" />
		</g>
		<g id="Layer">
			<path id="Layer" class="s25" d="m1813 541.2c0 0 23.6 90.2 26.4 102.7c2.8 12.5 6.9 22.8 6.9 28.1c0 12.3-4.6 32.1-4.6 32.1l-30 143.6h-28.6c0 0 15.9-86.1 16.4-103c0.4-16.9 13.4-40.8 10.8-48c-2.5-7.1-41-89.5-41-89.5c0 0-29.2-92.2 43.7-66z" />
		</g>
		<g id="Layer">
			<path id="Layer" class="s24" d="m1745.1 879.7c-6.3-7.1-9.8-16.5-9.8-16.5l13-2.7l16 21c0 0-11.6 6.5-19.2-1.8z" />
		</g>
		<g id="Layer">
			<g id="Layer">
				<path id="Layer" class="s26" d="m1803.2 387.9c0 0 9.7 0.9 17.1 8.8c7.4 7.9 14.3 20.5 16.2 24.7c1.9 4.2 29 43.2 30.4 44.1c1.4 0.8 15 5.4 24 8.4c13.9 4.7 41.7 14.8 41.7 14.8l-5.5 17.5c0 0-52.4-17.1-65.5-20.3c-16-4-53-51.4-53-51.4c0 0-27.5-32.2-5.4-46.6z" />
			</g>
		</g>
		<g id="Layer">
			<g id="Layer">
				<g id="Layer">
					<path id="Layer" class="s16" d="m1786.2 381.1c0-0.1 12.6 5.9 17 6.8c4.4 0.9 21.4 23 24.4 31c3 8.1 0 20.2-6.2 34.4c-6.1 14.2-0.3 18.9-3.1 33.1c-2.8 14.2-1.9 67.4-1.4 75.3c0.5 7.9-82.1 19.8-98.4 5.4c0 0 11-47.8 24.1-61.5c2.8-3 2.5-22.7 0.6-27.6c-1.9-4.9-23.7-41.5-23.7-41.5c0 0-1.6-37.2 7.9-44.6c8.3-6.4 30.7-8.6 34.8-10c4-1.5 15.7-2.1 24-0.9z" />
				</g>
			</g>
		</g>
		<g id="Layer">
			<g id="Layer">
				<path id="Layer" class="s24" d="m1792.2 366.5c0 0-0.4 3.5-0.8 8.2c-0.2 1.8-0.3 3.9-0.5 6c-0.5 6.3-0.9 13-0.7 16.5c0 0-13.1 13.1-28-15.4c0 0 6.3-11.7 1.5-27.7c-4.7-16 28.5 12.4 28.5 12.4z" />
			</g>
		</g>
		<g id="Layer">
			<path id="Layer" class="s26" d="m1822.7 451.3c6-15.6 6-26.6 6-26.6c3.4 12.8 0.2 33.8 0.2 33.8z" />
		</g>
		<g id="Layer">
			<path id="Layer" class="s24" d="m1762.4 381.5c0 0 25.6 0.3 27.3 0.7c1.8 0.3 8 3.8 8 3.8c0 0 13 20.6-11.8 22.6c-24.8 1.9-33.8-24.7-33.8-24.7z" />
		</g>
		<g id="Layer">
			<path id="Layer" class="s27" d="m1804.7 388.1c14 11.8 22.6 25.4 24.1 34.6c1.1 7.3-6.3 33.7-8 39.6c-1.8 6-5 76.7-3.2 83.4c1.9 6.7 26.2 99.6 26.2 99.6l-10.1 5.2c0 0-13-58.2-17.5-77c-4.5-18.8-5.6-78.4-5.6-115c0-36.6-12.9-72.5-12.9-72.5z" />
		</g>
		<g id="Layer">
			<path id="Layer" class="s27" d="m1757 382.7c0 0 8.1 25.9 12.2 58.9c4.1 33.1-12.6 186.6-23.7 221.5l-43.3-7c0 0 9.3-108.5 22-128.2c12.6-19.8 16.6-37.3 3-78.5c-13.7-41.2 6-61.6 6-61.6c0 0 20-4.6 23.8-5.1z" />
		</g>
		<g id="Layer">
			<path id="Layer" class="s28" d="m1803.6 492.3l-52.4 90.7l-58.2-33.6l50.1-92.1z" />
		</g>
		<g id="Layer">
			<path id="Layer" class="s29" d="m1797.3 495.4l-46.5 80.6l-51.8-29.9l44.6-81.8z" />
		</g>
		<g id="Layer">
			<path id="Layer" class="s28" d="m1758.4 475.6l4.1-5.2l20.9 12.1l-3.3 5.6z" />
		</g>
		<g id="Layer">
			<g id="Layer">
				<g id="Layer">
					<g id="Layer">
						<g id="Layer">
							<g id="Layer">
								<path id="Layer" class="s24" d="m1777.7 552.5c0 0-2.4 0-3.5-0.5c0 0-1.8-1-3.2-1.7c-0.4-0.2-0.8-0.4-1-0.5c-1.1-0.4-3.5-0.8-5.9-2.5c-2.3-1.6-10.5-11.1-10.5-11.1l3.9-5.8l2.8-6.1c0 0 17.3 1.1 19.6 2.4q0.4 0.2 0.6 0.4c1.9 1.2 2.8 2.9 3.7 3.7c0.3 0.3 3.4 3.3 3.3 4.6c-0.1 1.8-1 3-2 3.6c0 0-0.5 3.5-2.2 5.1c0 0-0.3 3.3-3.1 4.7c0 0-0.6 3.3-2.5 3.7z" />
							</g>
						</g>
					</g>
				</g>
			</g>
		</g>
		<g id="Layer">
			<g id="Layer">
				<path id="Layer" class="s26" d="m1735.1 443.4c-2.1 4.5-11.1 35.1-14.2 44.1c-2.5 7.7 10 14.4 15.9 20.6c3.7 3.8 25.9 16.3 25.9 16.3c0 0-9.8 23.3-9.5 21.2c0.4-2.1-54.7-30.2-60.1-39.7c-5.4-9.5 6.3-36.7 6.9-39c0.5-2.3 5.7-24.4 6.8-32.4c1.2-8.6 1.2-16.1 10.3-33.6c9.1-17.6 25-13 25-13c13.5 5.7-4.9 51.1-7 55.5z" />
			</g>
		</g>
		<g id="Layer">
			<g id="Layer">
				<g id="Layer">
					<g id="Layer">
						<g id="Layer">
							<path id="Layer" class="s30" d="m1794.2 297.4c0 0 28.3 8.9 12.9 57.8c-15.4 48.9-54-5.6-50-35.4c4.1-29.8 37.1-22.4 37.1-22.4z" />
						</g>
					</g>
				</g>
			</g>
		</g>
		<g id="Layer">
			<g id="Layer">
				<g id="Layer">
					<g id="Layer">
						<g id="Layer">
							<path id="Layer" class="s22" d="m1810 326c0 0-14.1 13.8-37.6 15.5c0 0-9.1 10.6-9.8 14.8c0 0-21-35.9 4.9-57.3c25.8-21.5 52 18.1 42.5 27z" />
						</g>
					</g>
				</g>
			</g>
		</g>
		<g id="Layer">
			<g id="Layer">
				<g id="Layer">
					<g id="Layer">
						<g id="Layer">
							<path id="Layer" class="s30" d="m1768.8 350.8c-3.5 1-9.1-15.4-3.8-17.7c5.3-2.3 7.5 5.8 7.7 9.4c0.4 8.4-3.9 8.3-3.9 8.3z" />
						</g>
					</g>
				</g>
			</g>
		</g>
		<g id="Layer">
			<path id="Layer" class="s31" d="m1791.4 374.6c-0.2 1.9-0.3 4-0.5 6.1c0 0-12.5-0.8-20.9-19.4c0.6 0.8 9.7 14.3 21.4 13.3z" />
		</g>
	</g>
	<g id="Layer">
		<g id="Layer">
			<path id="Layer" class="s32" d="m2032.5 439.3l-56.7 31.2l-57-89.7l68.9-23.9z" />
		</g>
		<g id="Layer">
			<path id="Layer" class="s1" d="m2028.9 436.6l-53.1 29.1l-53.2-83.8l64.4-22.4z" />
		</g>
		<g id="Layer">
			<path id="Layer" class="s24" d="m2047.9 431c0 0-15.7-5.3-19-6.5c-3.2-1.1-9.7 1-13.9-0.5c-4.2-1.5-13.8 3.8-15.1 3.3c-1.4-0.6-2.6 0-1.6-2.7c0.9-2.7 10.1-3.4 9.5-6.7c-0.7-3.3-12.3-7.7-20.6-9.5c-8.3-1.9-6.4-7.5-4.5-5.8c2 1.7 34.1 3.7 35 4.5c0.9 0.8 12.1 4.2 16.4 6.6c4.3 2.5 14.2 7.2 14.2 7.2z" />
		</g>
		<g id="Layer">
			<path id="Layer" class="s24" d="m1973 459.2c0 0-8.3-7.5-12.3-10.6c-4-3.1-11.5-12.3-12.6-12.8c-1.2-0.6-15.5-30.1-17.9-31.3c-2.3-1.1 2.2-5.1 7.2 2c5 7.2 13.7 16.3 17 15.7c3.3-0.7 0.5-9.7 2.6-11.6c2.2-1.9 2.1-0.5 3.1 0.5c1.1 1-0.2 12.1 2.9 15.5c3.1 3.4 3.6 10.3 5.9 12.9c2.3 2.6 13.5 15.4 13.5 15.4z" />
		</g>
		<g id="Layer">
			<path id="Layer" class="s33" d="m2175.1 856.5l-1.5 14.8c0 0-19.8 3-20 1.1c-0.2-1.8-2-14.3-2-14.3c2.5-1.8 23.6-1.6 23.5-1.6z" />
		</g>
		<g id="Layer">
			<path id="Layer" class="s32" d="m2173.7 870c0 0 6.6 25.7 3.9 29.8c-2.7 4-14.8 2.3-39.9 2.5c-25.1 0.2-18.3-10.3-15.7-12.7c3.5-3.4 13-4.7 19.1-8c6-3.3 12.3-10.8 12.3-10.8c14.4 1.3 20.3-0.8 20.3-0.8z" />
		</g>
		<g id="Layer">
			<path id="Layer" class="s33" d="m2033.8 856.5l-1.6 14.8c0 0-19.7 3-20 1.1c-0.2-1.8-2-14.3-2-14.3c2.5-1.8 23.6-1.6 23.6-1.6z" />
		</g>
		<g id="Layer">
			<path id="Layer" class="s32" d="m2032.3 870c0 0 6.6 25.7 3.9 29.8c-2.7 4-14.8 1.9-39.9 2.5c-35.3 0.9-31-8.9-28.4-11.4c3.5-3.3 25.8-6 31.8-9.3c6.1-3.3 12.3-10.8 12.3-10.8c14.7 1.5 20.3-0.8 20.3-0.8z" />
		</g>
		<g id="Layer">
			<path id="Layer" class="s32" d="m2135.2 538.2c0 0 18.6 29.4 17.2 56.1c-1.4 26.6 6.7 55.6 9.5 83.5c3.1 31 15.8 104.4 16.3 120.9c0.4 16.6-2 69.6-2 69.6l-25.4 0.6c0 0-21.4-128.4-26.9-141.4c-5.5-13.1-33-106.5-33.9-117c-0.9-10.4 45.2-72.3 45.2-72.3z" />
		</g>
		<g id="Layer">
			<path id="Layer" class="s32" d="m2144.6 536.7c-7.7 51.8-36.2 52.5-48.6 80.4c-12.5 27.9-31.7 77.6-31.7 120c0 42.3-25 131.8-25 131.8h-32.5c4.9-15.2 10.1-138.2 11.1-148.4c0.9-10.2 2.1-72.8 4-89.1c1.8-16.3 15.8-89.2 15.8-89.2c10.3-16.5 106.9-5.5 106.9-5.5z" />
		</g>
		<g id="Layer">
			<path id="Layer" class="s24" d="m2119.9 311.7c0.2 11.4-5.6 28.5-12 40.4c-6.4 11.9-25.2 14.3-37.8 9.6c-12.5-4.6-13.6-42.6-2.2-61.5c11.5-18.9 36.4-9.6 36.4-9.6c6.5 3.3 15.3 9.6 15.6 21.1z" />
		</g>
		<g id="Layer">
			<path id="Layer" class="s24" d="m2112.4 342.8c-5.3 15.2-8 33.2-8 33.2c0 0-34-0.1-32.3-3.4c1.8-3.3 0.7-10 0.7-10c0 0 44.8-35 39.6-19.8z" />
		</g>
		<g id="Layer">
			<path id="Layer" class="s34" d="m2112.4 342.8c0 0-2.4 3.9-11.9 2.4c-9.6-1.5-21.3-14.2-25.3-15.6c-4-1.4-4-3.8-4-3.8l-2.5 3.7l-4.2 0.2c0 0 3.8-11.3-2-16c-5.9-4.6 6-36.8 36.7-26.1c0 0 23.6 6.5 22.7 19.9c-0.8 13.4-4.3 28.6-9.5 35.3z" />
		</g>
		<g id="Layer">
			<path id="Layer" class="s35" d="m2070.1 372.2c0 0 0.2-6.3 3-6.9c2.9-0.6 31.7-3.4 35.2-2v7.4c0 0-6.8 4.1-38.2 1.5z" />
		</g>
		<g id="Layer">
			<path id="Layer" class="s24" d="m2071.8 320.9c0.6-2.2 6.3-8.6 8.5-1.8c2.2 6.9-3.3 16.2-6.4 15.4c-3.1-0.8-3.4-7.9-2.1-13.6z" />
		</g>
		<g id="Layer">
			<path id="Layer" class="s36" d="m1956 446.9q0 0 0 0q-0.3 0.2 0 0z" />
		</g>
		<g id="Layer">
			<path id="Layer" class="s26" d="m2156.2 608.4c0 0-15.3 4.4-41.3 7.3c-26 2.9-91.1-1-91.5-4.1c-0.4-3.1 14-114.5 13.2-120.2c-0.8-5.7-1.3-26.2-1.3-26.2c-0.3 5.6-6 28.5-12.9 41c-2.5 4.5-10.8 18.6-14.8 15.4c-19.5-15.6-49.7-74.2-51.6-74.7c1.6-0.7 14.3-6.5 16.1-7.1c1.5-0.5 15.6 14.4 24.1 23.6c3.8 4.1 6.5 7.1 6.5 7.1c2.5-5.5 11.4-40.4 14.2-52.5c6.3-27.2 5.3-28.3 5.3-28.3c19.1-5.7 47.9-17.5 47.9-17.5l38.2-1.5c0 0 35 7.7 48.7 13.9c1.4 0.6 1.4 31.2 4.9 39.3l-11.4 24.1c0 0-6.6 47.7-8 68.9c-0.6 9.8 13.7 91.5 13.7 91.5z" />
		</g>
		<g id="Layer">
			<path id="Layer" class="s26" d="m2163.5 463.6c-1 3.2-5.5 5.9-8.4 7.1c-1.9 0.8-4 1-6.1 0.6l-1.5-0.2l-26.2-4.9c0 0-5.7-65.8 35.7-81.6c1.1 0.4 15.7 49.5 6.5 79z" />
		</g>
		<g id="Layer">
			<path id="Layer" class="s26" d="m2155.1 470.7c-1.9 0.8-4 1-6.1 0.6l-1.5-0.2l2.6-33.7z" />
		</g>
		<g id="Layer">
			<path id="Layer" class="s27" d="m2002.7 470.5l-3.2 13.5c0 0-3.5-13.6-3.3-20.6c3.8 4.1 6.5 7.1 6.5 7.1z" />
		</g>
		<g id="Layer">
			<path id="Layer" class="s34" d="m2111.4 292.8c0 0 32.6-4.1 0.5 50.4z" />
		</g>
		<g id="Layer">
			<path id="Layer" class="s32" d="m1945 376l-3.3-5.7l26.1-9l3.3 5.7z" />
		</g>
	</g>
	<text id="RESUME" style="transform: matrix(1,0,0,1,1090.467,192.057)" >
		<tspan x="0" y="0" class="t37">RESUME
</tspan>
	</text>
	<text id="RESUME" style="transform: matrix(1,0,0,1,1402.928,273.024)" >
		<tspan x="0" y="0" class="t37">RESUME
</tspan>
	</text>
	<text id="RESUME" style="transform: matrix(1,0,0,1,777.49,267.669)" >
		<tspan x="0" y="0" class="t37">RESUME
</tspan>
	</text>
	<path id="Layer" class="s9" d="m924.1 294.8h-224.9c-3.6 0-6.5-2.9-6.5-6.5c0-3.6 2.9-6.5 6.5-6.5h224.9c3.6 0 6.5 2.9 6.5 6.5c0 3.6-2.9 6.5-6.5 6.5z" />
	<path id="Layer" class="s9" d="m1240.7 226.4h-224.9c-3.6 0-6.5-2.9-6.5-6.5c0-3.6 2.9-6.5 6.5-6.5h224.9c3.6 0 6.5 2.9 6.5 6.5c0 3.6-2.9 6.5-6.5 6.5z" />
	<path id="Layer" class="s9" d="m924.1 436.8h-224.9c-3.6 0-6.5-2.9-6.5-6.5c0-3.6 2.9-6.6 6.5-6.6h224.9c3.6 0 6.5 3 6.5 6.6c0 3.6-2.9 6.5-6.5 6.5z" />
	<path id="Layer" class="s9" d="m1265.5 281.8h-90c-4.2 0-7.7-3.4-7.7-7.6c0-4.2 3.5-7.7 7.7-7.7h90c4.2 0 7.6 3.5 7.6 7.7c0 4.2-3.4 7.6-7.6 7.6z" />
	<path id="Layer" class="s9" d="m1267.5 318.6h-90c-4.2 0-7.7-3.4-7.7-7.7c0-4.2 3.5-7.6 7.7-7.6h90c4.2 0 7.6 3.4 7.6 7.6c0 4.3-3.4 7.7-7.6 7.7z" />
</svg>