<svg width="347" height="304" viewBox="0 0 347 304" fill="none" xmlns="http://www.w3.org/2000/svg">
<path d="M30.0461 209.556C30.4541 209.332 30.9186 209.206 31.3951 209.192C31.8716 209.177 32.3442 209.274 32.7678 209.474C33.1871 209.676 33.5901 209.916 34.0094 210.096C34.4501 210.264 34.8604 210.491 35.2264 210.771C35.5752 211.071 35.8329 211.448 35.9746 211.865C36.0852 212.287 36.135 212.721 36.1227 213.154L36.2131 215.748L47.8236 215.38L47.7496 215.448L47.6098 212.045C47.6244 211.446 47.8688 210.87 48.3005 210.418C49.2726 209.678 50.3516 209.063 51.5074 208.59C52.148 208.425 52.8318 208.47 53.4397 208.717L56.7288 210.299L56.4739 210.366L61.8927 200.997L61.9996 201.341L58.7105 199.737C58.1132 199.402 57.6626 198.888 57.436 198.283C57.3222 197.984 57.2612 197.67 57.2551 197.354V196.514V195.667C57.2303 195.35 57.2636 195.03 57.3538 194.723C57.5389 194.096 57.9575 193.547 58.5378 193.171L61.7118 191.357L61.5967 191.815L55.4461 182.82L55.997 182.932L52.7984 184.746C52.1601 185.061 51.4201 185.159 50.7098 185.024C50.3593 184.96 50.023 184.844 49.7148 184.679L48.8926 184.259L48.0703 183.884C47.5709 183.675 47.1399 183.35 46.8198 182.943C46.4998 182.536 46.3016 182.059 46.2448 181.561L46.138 178.135L46.5244 178.465L34.9139 178.757L35.2346 178.443L35.3168 181.868C35.2872 182.503 35.0236 183.11 34.5686 183.592C34.3303 183.826 34.0527 184.023 33.7463 184.177L32.924 184.611L32.1017 185.046C31.8185 185.221 31.5042 185.351 31.1726 185.428C30.5053 185.582 29.8007 185.523 29.1744 185.264L25.8853 183.622L26.1814 183.54L20.6146 192.841L20.557 192.677L23.8461 194.318C24.3949 194.636 24.8048 195.118 25.0055 195.682C25.1518 196.244 25.2099 196.822 25.1782 197.399C25.2395 197.969 25.2146 198.544 25.1042 199.108C24.9354 199.671 24.5576 200.164 24.0352 200.502L20.853 202.293V202.241L26.9461 211.235L30.0461 209.556ZM30.0461 209.556L27.0201 211.273L20.8613 202.278L24.027 200.472C24.5225 200.143 24.8794 199.67 25.0384 199.13C25.1412 198.575 25.1578 198.01 25.0877 197.451C25.1089 196.891 25.0453 196.331 24.8986 195.787C24.7224 195.255 24.3507 194.795 23.8461 194.483L20.557 192.894L20.4419 192.841L20.4995 192.737L25.9182 183.36L26.0169 183.18L26.2143 183.277L29.5033 184.851C30.0202 185.062 30.6009 185.104 31.1479 184.971C31.4183 184.904 31.6742 184.795 31.9044 184.649L32.7267 184.184L33.5489 183.727C33.7891 183.599 34.0056 183.437 34.1903 183.247C34.5533 182.857 34.7593 182.365 34.7741 181.853L34.5357 178.465V178.165H34.8728L46.4998 177.813H46.8698V178.158L46.9931 181.538C47.0465 182.029 47.2848 182.487 47.6674 182.835C47.8589 183.005 48.078 183.146 48.317 183.255L49.1393 183.637L49.9615 184.064C50.1894 184.191 50.4399 184.279 50.7016 184.327C51.2263 184.418 51.7697 184.342 52.2392 184.109L55.4132 182.34L55.7503 182.145L55.9559 182.453L62.0572 191.447L62.2463 191.732L61.9338 191.905L58.7763 193.688C58.3276 193.972 58.0041 194.392 57.8636 194.873C57.7917 195.117 57.7612 195.37 57.7731 195.622V196.484V197.339C57.7713 197.594 57.8158 197.847 57.9047 198.088C58.08 198.568 58.4276 198.98 58.8914 199.258L62.1805 200.884L62.4272 201.004L62.2956 201.229L56.7288 210.523L56.6384 210.681L56.4739 210.598L53.1848 208.972C52.6431 208.748 52.0336 208.7 51.4581 208.837C50.8741 209.015 50.3205 209.268 49.8135 209.586C49.2733 209.842 48.7728 210.162 48.3252 210.538C47.9158 210.95 47.6823 211.482 47.6674 212.037L47.7496 215.44V215.508H47.6756L36.1802 215.778L36.098 213.184C36.1203 212.754 36.076 212.322 35.9664 211.903C35.8265 211.492 35.5747 211.121 35.2346 210.823C34.8757 210.542 34.4706 210.315 34.0341 210.149C33.6065 209.961 33.2118 209.721 32.7924 209.519C32.3711 209.306 31.8957 209.197 31.4138 209.203C30.9318 209.21 30.4602 209.332 30.0461 209.556V209.556Z" fill="#EBEBEB"/>
<path d="M32.4388 193.868C33.1169 192.242 34.3051 190.833 35.8553 189.817C37.4055 188.802 39.2492 188.225 41.1567 188.157C43.0642 188.09 44.9513 188.536 46.5827 189.44C48.2142 190.343 49.5179 191.664 50.3316 193.239C50.8846 194.312 51.1956 195.476 51.246 196.661C51.2965 197.846 51.0854 199.028 50.6253 200.138C50.1652 201.247 49.4654 202.261 48.5675 203.119C47.6696 203.977 46.5917 204.662 45.3979 205.134C44.2171 205.597 42.9477 205.843 41.6623 205.859C40.3769 205.874 39.1008 205.659 37.907 205.224C35.5319 204.357 33.6307 202.667 32.6197 200.524C31.5957 198.415 31.5306 196.021 32.4388 193.868V193.868ZM32.4388 193.868C32.0094 194.934 31.8145 196.066 31.8653 197.201C31.9161 198.335 32.2116 199.449 32.7348 200.479C33.513 201.987 34.761 203.253 36.3232 204.118C37.8854 204.984 39.6927 205.411 41.5194 205.346C43.3462 205.281 45.1116 204.728 46.5954 203.754C48.0791 202.781 49.2156 201.431 49.8629 199.872C50.7184 197.797 50.6504 195.499 49.6734 193.468C48.6964 191.438 46.8878 189.836 44.6332 189.004C42.3227 188.164 39.7413 188.194 37.4547 189.086C35.1619 190.022 33.3617 191.738 32.4388 193.868Z" fill="#EBEBEB"/>
<path d="M306.807 137.922L302.745 131.498L300.583 132.638C300.271 132.798 299.918 132.876 299.561 132.865C299.204 132.853 298.857 132.751 298.56 132.57C298.217 132.369 297.863 132.184 297.499 132.015C297.179 131.87 296.91 131.646 296.722 131.37C296.533 131.093 296.432 130.775 296.43 130.449V128.2H288.29V130.449C288.288 130.775 288.187 131.093 287.998 131.37C287.809 131.646 287.54 131.87 287.221 132.015C286.86 132.184 286.509 132.369 286.168 132.57C285.869 132.751 285.522 132.854 285.163 132.866C284.805 132.877 284.449 132.799 284.137 132.638L281.983 131.498L277.929 137.922L280.1 139.061C280.407 139.228 280.658 139.468 280.825 139.757C280.992 140.045 281.068 140.37 281.045 140.695C281.045 140.883 281.045 141.062 281.045 141.242C281.045 141.422 281.045 141.61 281.045 141.79C281.067 142.115 280.991 142.439 280.824 142.727C280.657 143.016 280.407 143.256 280.1 143.424L277.929 144.563L281.999 150.994L284.162 149.855C284.473 149.693 284.828 149.612 285.187 149.623C285.545 149.634 285.893 149.735 286.193 149.915C286.528 150.118 286.877 150.303 287.237 150.469C287.556 150.616 287.824 150.84 288.012 151.116C288.201 151.392 288.302 151.711 288.306 152.036V154.285H296.446V152.036C296.45 151.711 296.552 151.392 296.74 151.116C296.929 150.84 297.197 150.616 297.515 150.469C297.878 150.304 298.229 150.118 298.568 149.915C298.867 149.735 299.216 149.634 299.574 149.623C299.933 149.612 300.287 149.693 300.599 149.855L302.762 150.994L306.824 144.563L304.661 143.424C304.354 143.258 304.103 143.019 303.937 142.732C303.77 142.445 303.693 142.121 303.715 141.797C303.715 141.61 303.715 141.43 303.715 141.242C303.715 141.055 303.715 140.883 303.715 140.695C303.692 140.369 303.769 140.043 303.938 139.755C304.106 139.466 304.36 139.226 304.669 139.061L306.807 137.922ZM299.028 141.242C299.028 142.445 298.637 143.621 297.904 144.62C297.171 145.62 296.129 146.399 294.91 146.859C293.691 147.319 292.35 147.439 291.056 147.204C289.762 146.969 288.574 146.389 287.641 145.538C286.709 144.687 286.075 143.603 285.818 142.424C285.562 141.244 285.695 140.022 286.201 138.911C286.707 137.8 287.563 136.851 288.661 136.184C289.759 135.517 291.049 135.162 292.368 135.164C294.135 135.166 295.829 135.807 297.078 136.947C298.327 138.086 299.028 139.631 299.028 141.242V141.242Z" fill="#EBEBEB"/>
<path d="M75.5425 70.6271L3.50293 70.5297C3.50293 70.5297 7.08805 66.2797 11.0432 65.7551C11.0432 65.7551 18.7561 44.9251 31.6001 44.7677C43.5806 44.6927 48.3334 57.6599 48.3334 57.6599C48.3334 57.6599 53.8837 51.8584 59.171 54.5193C64.4582 57.1802 67.4266 64.7956 67.4266 64.7956C67.4266 64.7956 73.3881 67.7264 75.5425 70.6271Z" fill="#EBEBEB"/>
<path d="M252.438 46.1544L343.538 46.2818C343.538 46.2818 343.538 40.975 330.999 39.9256C330.999 39.9256 319.577 16.6896 302.079 19.8077C291.143 21.734 285.551 35.3984 285.551 35.3984C285.551 35.3984 277.329 24.6573 270.751 26.7261C264.172 28.7948 260.234 40.218 260.234 40.218C260.234 40.218 253.433 43.1562 252.438 46.1544Z" fill="#EBEBEB"/>
<path d="M97.7522 21.5918L159.694 21.6817C159.694 21.6817 153.856 16.7122 151.258 16.7122C148.659 16.7122 141.111 0.0422038 131.416 0.739286C121.722 1.43637 116.566 13.8264 116.566 13.8264C116.566 13.8264 104.791 10.446 97.7522 21.5918Z" fill="#EBEBEB"/>
<path d="M241.469 89.8231L294.44 89.8981C294.44 89.8981 291.809 86.7649 288.906 86.3752C288.906 86.3752 283.29 71.0394 273.834 70.9194C265.044 70.807 261.5 80.3263 261.5 80.3263C261.5 80.3263 257.438 76.0464 253.54 77.9952C249.643 79.944 247.439 85.5357 247.439 85.5357C247.439 85.5357 243.056 87.6794 241.469 89.8231Z" fill="#EBEBEB"/>
<path d="M49.608 261.245L49.1064 260.653L76.1182 241.45L115.522 238.376L115.587 238.392L150.353 246.786L180.769 222.726L180.884 222.703L223.503 217.127L255.251 197.653L269.969 167.042L270.726 167.349L255.909 198.156L255.81 198.216L223.807 217.846L223.708 217.854L181.123 223.43L150.559 247.618L150.353 247.566L115.448 239.134L76.4306 242.184L49.608 261.245Z" fill="white"/>
<path d="M50.8086 260.803C50.8086 261.473 50.5907 262.128 50.1823 262.685C49.7739 263.243 49.1934 263.677 48.5143 263.933C47.8351 264.19 47.0878 264.257 46.3669 264.126C45.6459 263.995 44.9836 263.673 44.4638 263.199C43.944 262.725 43.5901 262.121 43.4467 261.464C43.3033 260.807 43.3769 260.126 43.6582 259.507C43.9395 258.888 44.4158 258.359 45.0271 257.986C45.6383 257.614 46.3568 257.415 47.0919 257.415C48.0777 257.415 49.023 257.772 49.7201 258.408C50.4171 259.043 50.8086 259.905 50.8086 260.803Z" fill="#DBDBDB"/>
<path d="M47.0918 264.566C46.2787 264.566 45.4838 264.346 44.8077 263.934C44.1316 263.523 43.6046 262.937 43.2934 262.253C42.9823 261.568 42.9008 260.814 43.0595 260.087C43.2181 259.36 43.6097 258.692 44.1847 258.168C44.7596 257.644 45.4922 257.287 46.2897 257.143C47.0873 256.998 47.9139 257.072 48.6652 257.356C49.4164 257.64 50.0585 258.12 50.5103 258.736C50.9621 259.353 51.2032 260.077 51.2032 260.818C51.2032 261.812 50.77 262.766 49.999 263.468C49.228 264.171 48.1822 264.566 47.0918 264.566V264.566ZM47.0918 257.82C46.4413 257.82 45.8054 257.996 45.2645 258.325C44.7236 258.655 44.3021 259.123 44.0531 259.671C43.8042 260.219 43.739 260.822 43.8659 261.403C43.9928 261.985 44.3061 262.519 44.7661 262.938C45.2261 263.358 45.8121 263.643 46.4502 263.759C47.0882 263.875 47.7495 263.815 48.3505 263.588C48.9515 263.361 49.4652 262.977 49.8266 262.484C50.188 261.991 50.3809 261.411 50.3809 260.818C50.3853 260.422 50.3034 260.029 50.1401 259.662C49.9767 259.295 49.7351 258.96 49.4293 258.679C49.1234 258.397 48.7594 258.174 48.3582 258.021C47.9569 257.869 47.5265 257.79 47.0918 257.79V257.82Z" fill="white"/>
<path d="M79.8184 241.817C79.8184 242.488 79.6004 243.143 79.192 243.7C78.7836 244.257 78.2031 244.691 77.524 244.948C76.8449 245.204 76.0976 245.271 75.3766 245.14C74.6556 245.01 73.9934 244.687 73.4736 244.213C72.9538 243.739 72.5998 243.136 72.4564 242.478C72.313 241.821 72.3866 241.14 72.6679 240.521C72.9492 239.902 73.4256 239.373 74.0368 239C74.648 238.628 75.3666 238.429 76.1017 238.429C77.0867 238.431 78.0308 238.789 78.7274 239.424C79.4239 240.059 79.8162 240.919 79.8184 241.817V241.817Z" fill="#DBDBDB"/>
<path d="M76.1016 245.58C75.2885 245.58 74.4936 245.36 73.8175 244.948C73.1414 244.537 72.6144 243.951 72.3032 243.266C71.992 242.582 71.9106 241.828 72.0692 241.101C72.2279 240.374 72.6194 239.706 73.1944 239.182C73.7694 238.658 74.502 238.301 75.2995 238.156C76.0971 238.012 76.9237 238.086 77.675 238.37C78.4263 238.653 79.0684 239.134 79.5201 239.75C79.9719 240.366 80.213 241.091 80.213 241.832C80.213 242.826 79.7799 243.779 79.0088 244.482C78.2378 245.185 77.192 245.58 76.1016 245.58ZM76.1016 238.834C75.4511 238.834 74.8152 239.01 74.2743 239.339C73.7334 239.669 73.3118 240.137 73.0629 240.685C72.8139 241.233 72.7488 241.836 72.8757 242.417C73.0026 242.999 73.3159 243.533 73.7759 243.952C74.2359 244.372 74.8219 244.657 75.46 244.773C76.098 244.889 76.7593 244.829 77.3603 244.602C77.9613 244.375 78.475 243.991 78.8364 243.498C79.1978 243.005 79.3907 242.425 79.3907 241.832C79.3951 241.436 79.3132 241.043 79.1499 240.676C78.9865 240.308 78.745 239.974 78.4391 239.693C78.1332 239.411 77.7692 239.188 77.368 239.035C76.9667 238.883 76.5363 238.804 76.1016 238.804V238.834Z" fill="white"/>
<path d="M119.23 238.242C119.23 238.912 119.012 239.568 118.603 240.125C118.194 240.682 117.613 241.117 116.934 241.373C116.254 241.629 115.506 241.696 114.785 241.564C114.064 241.433 113.402 241.11 112.882 240.635C112.363 240.16 112.01 239.556 111.867 238.898C111.725 238.241 111.799 237.559 112.082 236.94C112.364 236.321 112.842 235.793 113.454 235.421C114.067 235.05 114.786 234.853 115.522 234.854C116.009 234.854 116.492 234.942 116.943 235.112C117.393 235.282 117.802 235.532 118.147 235.847C118.491 236.161 118.764 236.535 118.95 236.946C119.136 237.357 119.231 237.797 119.23 238.242V238.242Z" fill="#DBDBDB"/>
<path d="M115.489 242.005C114.675 242.005 113.881 241.785 113.204 241.373C112.528 240.961 112.001 240.376 111.69 239.691C111.379 239.006 111.298 238.253 111.456 237.526C111.615 236.799 112.006 236.131 112.581 235.607C113.156 235.083 113.889 234.726 114.686 234.581C115.484 234.436 116.311 234.511 117.062 234.794C117.813 235.078 118.455 235.558 118.907 236.175C119.359 236.791 119.6 237.516 119.6 238.257C119.6 239.251 119.167 240.204 118.396 240.907C117.625 241.61 116.579 242.005 115.489 242.005ZM115.489 235.259C114.838 235.259 114.202 235.434 113.661 235.764C113.12 236.093 112.699 236.562 112.45 237.109C112.201 237.657 112.136 238.26 112.263 238.842C112.39 239.423 112.703 239.958 113.163 240.377C113.623 240.796 114.209 241.082 114.847 241.197C115.485 241.313 116.146 241.254 116.747 241.027C117.348 240.8 117.862 240.416 118.223 239.922C118.585 239.429 118.778 238.85 118.778 238.257C118.782 237.861 118.7 237.467 118.537 237.1C118.373 236.733 118.132 236.399 117.826 236.117C117.52 235.836 117.156 235.612 116.755 235.46C116.354 235.307 115.923 235.229 115.489 235.229V235.259Z" fill="white"/>
<path d="M150.287 250.669C152.34 250.669 154.004 249.153 154.004 247.282C154.004 245.41 152.34 243.894 150.287 243.894C148.235 243.894 146.571 245.41 146.571 247.282C146.571 249.153 148.235 250.669 150.287 250.669Z" fill="#DBDBDB"/>
<path d="M150.287 251.044C149.474 251.044 148.679 250.825 148.003 250.413C147.327 250.001 146.8 249.416 146.489 248.731C146.178 248.046 146.096 247.292 146.255 246.565C146.413 245.838 146.805 245.171 147.38 244.647C147.955 244.122 148.688 243.765 149.485 243.621C150.283 243.476 151.109 243.55 151.861 243.834C152.612 244.118 153.254 244.598 153.706 245.214C154.157 245.831 154.399 246.555 154.399 247.297C154.399 248.291 153.965 249.244 153.194 249.947C152.423 250.65 151.378 251.044 150.287 251.044V251.044ZM150.287 244.298C149.637 244.298 149.001 244.474 148.46 244.804C147.919 245.133 147.497 245.601 147.248 246.149C146.999 246.697 146.934 247.3 147.061 247.882C147.188 248.463 147.501 248.997 147.961 249.417C148.421 249.836 149.007 250.122 149.646 250.237C150.284 250.353 150.945 250.294 151.546 250.067C152.147 249.84 152.661 249.455 153.022 248.962C153.383 248.469 153.576 247.89 153.576 247.297C153.581 246.9 153.499 246.507 153.335 246.14C153.172 245.773 152.931 245.439 152.625 245.157C152.319 244.876 151.955 244.652 151.554 244.499C151.152 244.347 150.722 244.268 150.287 244.268V244.298Z" fill="white"/>
<path d="M184.658 223.461C184.658 224.131 184.44 224.786 184.032 225.343C183.624 225.9 183.043 226.334 182.364 226.591C181.685 226.847 180.938 226.914 180.217 226.784C179.496 226.653 178.833 226.33 178.314 225.856C177.794 225.383 177.44 224.779 177.297 224.122C177.153 223.464 177.227 222.783 177.508 222.164C177.789 221.545 178.266 221.016 178.877 220.644C179.488 220.271 180.207 220.073 180.942 220.073C181.927 220.073 182.873 220.43 183.57 221.065C184.267 221.7 184.658 222.562 184.658 223.461Z" fill="#DBDBDB"/>
<path d="M180.942 227.224C180.129 227.224 179.334 227.004 178.658 226.592C177.981 226.18 177.454 225.595 177.143 224.91C176.832 224.225 176.751 223.472 176.909 222.745C177.068 222.018 177.46 221.35 178.035 220.826C178.61 220.302 179.342 219.945 180.14 219.8C180.937 219.656 181.764 219.73 182.515 220.014C183.266 220.297 183.908 220.778 184.36 221.394C184.812 222.01 185.053 222.735 185.053 223.476C185.053 224.47 184.62 225.423 183.849 226.126C183.078 226.829 182.032 227.224 180.942 227.224V227.224ZM180.942 220.478C180.291 220.478 179.655 220.654 179.114 220.983C178.574 221.313 178.152 221.781 177.903 222.329C177.654 222.876 177.589 223.479 177.716 224.061C177.843 224.643 178.156 225.177 178.616 225.596C179.076 226.015 179.662 226.301 180.3 226.417C180.938 226.532 181.599 226.473 182.2 226.246C182.801 226.019 183.315 225.635 183.677 225.142C184.038 224.649 184.231 224.069 184.231 223.476C184.235 223.08 184.153 222.687 183.99 222.319C183.827 221.952 183.585 221.618 183.279 221.337C182.973 221.055 182.609 220.831 182.208 220.679C181.807 220.526 181.376 220.448 180.942 220.448V220.478Z" fill="white"/>
<path d="M227.367 217.194C227.364 217.864 227.143 218.518 226.732 219.073C226.322 219.629 225.74 220.061 225.06 220.315C224.38 220.568 223.633 220.633 222.913 220.5C222.192 220.367 221.532 220.042 221.014 219.567C220.496 219.092 220.144 218.488 220.003 217.83C219.862 217.173 219.938 216.492 220.221 215.874C220.504 215.256 220.982 214.729 221.594 214.358C222.205 213.987 222.924 213.79 223.659 213.792C224.148 213.792 224.631 213.881 225.083 214.053C225.534 214.225 225.943 214.476 226.288 214.792C226.632 215.108 226.905 215.483 227.09 215.895C227.275 216.307 227.37 216.749 227.367 217.194V217.194Z" fill="#DBDBDB"/>
<path d="M223.659 220.957C222.846 220.957 222.051 220.737 221.375 220.326C220.698 219.914 220.172 219.328 219.86 218.644C219.549 217.959 219.468 217.205 219.626 216.478C219.785 215.751 220.177 215.084 220.752 214.559C221.327 214.035 222.059 213.678 222.857 213.534C223.654 213.389 224.481 213.463 225.232 213.747C225.983 214.031 226.625 214.511 227.077 215.127C227.529 215.744 227.77 216.468 227.77 217.209C227.77 218.203 227.337 219.157 226.566 219.859C225.795 220.562 224.749 220.957 223.659 220.957ZM223.659 214.211C223.008 214.211 222.372 214.387 221.831 214.717C221.291 215.046 220.869 215.514 220.62 216.062C220.371 216.61 220.306 217.213 220.433 217.794C220.56 218.376 220.873 218.91 221.333 219.329C221.793 219.749 222.379 220.034 223.017 220.15C223.655 220.266 224.316 220.206 224.917 219.979C225.518 219.752 226.032 219.368 226.394 218.875C226.755 218.382 226.948 217.802 226.948 217.209C226.951 216.814 226.868 216.422 226.705 216.055C226.541 215.689 226.299 215.356 225.993 215.075C225.688 214.794 225.324 214.571 224.923 214.419C224.522 214.267 224.093 214.189 223.659 214.189V214.211Z" fill="white"/>
<path d="M259.321 197.991C259.321 198.661 259.103 199.317 258.694 199.874C258.285 200.431 257.704 200.865 257.025 201.122C256.345 201.378 255.597 201.444 254.876 201.313C254.155 201.182 253.493 200.858 252.973 200.384C252.454 199.909 252.101 199.305 251.958 198.647C251.816 197.989 251.89 197.308 252.173 196.689C252.456 196.07 252.933 195.542 253.545 195.17C254.158 194.799 254.877 194.601 255.613 194.603C256.1 194.603 256.583 194.69 257.034 194.861C257.484 195.031 257.893 195.281 258.238 195.596C258.582 195.91 258.855 196.284 259.041 196.695C259.227 197.106 259.322 197.546 259.321 197.991V197.991Z" fill="#DBDBDB"/>
<path d="M255.613 201.754C254.799 201.754 254.005 201.534 253.328 201.122C252.652 200.71 252.125 200.125 251.814 199.44C251.503 198.755 251.422 198.002 251.58 197.275C251.739 196.548 252.13 195.88 252.705 195.356C253.28 194.832 254.013 194.475 254.811 194.33C255.608 194.186 256.435 194.26 257.186 194.544C257.937 194.827 258.579 195.308 259.031 195.924C259.483 196.54 259.724 197.265 259.724 198.006C259.724 199 259.291 199.953 258.52 200.656C257.749 201.359 256.703 201.754 255.613 201.754V201.754ZM255.613 195.008C254.962 195.008 254.326 195.184 253.785 195.513C253.244 195.843 252.823 196.311 252.574 196.859C252.325 197.407 252.26 198.009 252.387 198.591C252.514 199.173 252.827 199.707 253.287 200.126C253.747 200.545 254.333 200.831 254.971 200.947C255.609 201.062 256.27 201.003 256.871 200.776C257.472 200.549 257.986 200.165 258.347 199.672C258.709 199.179 258.902 198.599 258.902 198.006C258.906 197.61 258.824 197.217 258.661 196.849C258.498 196.482 258.256 196.148 257.95 195.867C257.644 195.585 257.28 195.361 256.879 195.209C256.478 195.056 256.047 194.978 255.613 194.978V195.008Z" fill="white"/>
<path d="M274.237 167.207C274.237 167.877 274.019 168.532 273.611 169.089C273.203 169.646 272.622 170.08 271.943 170.337C271.264 170.593 270.517 170.66 269.796 170.53C269.075 170.399 268.412 170.076 267.893 169.602C267.373 169.129 267.019 168.525 266.875 167.868C266.732 167.211 266.806 166.529 267.087 165.91C267.368 165.291 267.845 164.762 268.456 164.39C269.067 164.018 269.786 163.819 270.521 163.819C271.009 163.818 271.493 163.905 271.944 164.075C272.396 164.245 272.806 164.494 273.151 164.809C273.497 165.124 273.77 165.498 273.957 165.909C274.143 166.321 274.238 166.762 274.237 167.207V167.207Z" fill="#DBDBDB"/>
<path d="M270.529 170.962C269.715 170.962 268.921 170.742 268.244 170.33C267.568 169.919 267.041 169.333 266.73 168.649C266.419 167.964 266.338 167.21 266.496 166.483C266.655 165.756 267.046 165.088 267.621 164.564C268.196 164.04 268.929 163.683 269.726 163.539C270.524 163.394 271.351 163.468 272.102 163.752C272.853 164.035 273.495 164.516 273.947 165.132C274.399 165.748 274.64 166.473 274.64 167.214C274.64 168.208 274.207 169.162 273.436 169.864C272.665 170.567 271.619 170.962 270.529 170.962V170.962ZM270.529 164.216C269.878 164.216 269.242 164.392 268.701 164.721C268.16 165.051 267.739 165.519 267.49 166.067C267.241 166.615 267.176 167.218 267.303 167.799C267.43 168.381 267.743 168.915 268.203 169.334C268.663 169.754 269.249 170.039 269.887 170.155C270.525 170.271 271.186 170.211 271.787 169.984C272.388 169.757 272.902 169.373 273.263 168.88C273.625 168.387 273.818 167.807 273.818 167.214C273.821 166.819 273.738 166.426 273.574 166.06C273.411 165.694 273.169 165.361 272.863 165.08C272.557 164.799 272.194 164.576 271.793 164.424C271.392 164.272 270.963 164.194 270.529 164.194V164.216Z" fill="white"/>
<path d="M230.911 207.218H193.21V303.625H230.911V207.218Z" fill="#4666F6"/>
<g opacity="0.1">
<path opacity="0.1" d="M230.911 207.218H222.277V303.625H230.911V207.218Z" fill="black"/>
</g>
<path d="M280.585 170.782H242.884V303.625H280.585V170.782Z" fill="#4666F6"/>
<g opacity="0.1">
<path opacity="0.1" d="M280.577 170.782H271.943V303.625H280.577V170.782Z" fill="black"/>
</g>
<path d="M181.353 228.925H143.652V303.617H181.353V228.925Z" fill="#4666F6"/>
<g opacity="0.1">
<path opacity="0.1" d="M181.353 228.925H172.719V303.617H181.353V228.925Z" fill="black"/>
</g>
<path d="M330.25 122.257H292.549V303.618H330.25V122.257Z" fill="#4666F6"/>
<g opacity="0.1">
<path opacity="0.1" d="M330.25 122.257H321.616V303.618H330.25V122.257Z" fill="black"/>
</g>
<path d="M130.298 274.663V256.074C130.298 256.074 267.617 245.423 323.088 106.756L328.606 108.053C328.606 108.053 291.759 250.183 130.298 274.663Z" fill="#334155"/>
<path d="M333.753 112.715L316.403 107.483L330.776 94.4185L333.753 112.715Z" fill="#334155"/>
<path d="M0 303.625L43.375 303.438L86.75 303.378L173.5 303.25L260.25 303.37L303.625 303.438L347 303.625L303.625 303.805L260.25 303.873L173.5 304L86.75 303.873L43.375 303.805L0 303.625Z" fill="#1E293B"/>
<path d="M211.662 47.3915C214.129 60.1339 205.906 73.9856 187.947 79.12C171.625 83.7897 153.157 76.0468 149.095 66.2427C144.794 55.8539 152.121 45.8924 161.306 45.0304C170.153 44.1685 177.192 48.6133 183.737 46.1997C186.87 45.0379 190.381 40.9529 194.928 39.034C200.002 36.8978 210.091 39.2214 211.662 47.3915Z" fill="#1E293B"/>
<path d="M155.78 74.9674C160.388 78.2498 165.839 80.4065 171.617 81.2336C177.398 82.0435 183.305 81.6332 188.885 80.0343C194.521 78.5186 199.607 75.6503 203.612 71.7293C207.53 67.7643 210.196 62.9046 211.324 57.6677C209.961 62.7879 207.188 67.5065 203.266 71.377C201.287 73.2732 199.035 74.9171 196.573 76.2641C194.106 77.5981 191.469 78.6503 188.72 79.3972C185.972 80.1606 183.145 80.663 180.284 80.8963C174.533 81.3592 168.743 80.5891 163.378 78.6477C160.679 77.7288 158.125 76.4915 155.78 74.9674V74.9674Z" fill="#1E293B"/>
<path d="M158.847 44.8057C160.557 44.3179 162.342 44.0801 164.134 44.1011C165.912 44.1054 167.684 44.2991 169.413 44.6782C171.156 45.068 172.916 45.4278 174.692 45.7126C176.483 46.0236 178.306 46.1443 180.127 46.0724C181.047 46.0285 181.961 45.9106 182.857 45.7201C183.751 45.4892 184.607 45.1541 185.406 44.7232C186.936 43.8472 188.406 42.8859 189.806 41.8449C191.202 40.8411 192.733 40.0024 194.361 39.3489C196.013 38.7175 197.776 38.3644 199.566 38.3071C197.753 38.2411 195.944 38.4956 194.238 39.0566C192.551 39.6669 190.957 40.4704 189.493 41.4477C188.013 42.3846 186.615 43.419 185.086 44.2135C184.335 44.6206 183.527 44.9332 182.685 45.1429C181.831 45.3185 180.961 45.4214 180.086 45.4503C176.559 45.6526 173.039 44.8356 169.528 44.2135C167.752 43.8818 165.938 43.7434 164.126 43.8013C162.317 43.8627 160.532 44.2023 158.847 44.8057V44.8057Z" fill="#1E293B"/>
<path d="M31.8219 71.0403C33.5569 67.375 87.3748 65.5761 133.126 65.0439H133.208C153.856 64.8116 173.689 63.0801 186.188 63.6722C194.131 64.0545 198.382 66.6704 199.344 67.7048C202.411 71.0628 208.027 81.8339 186.878 95.4382C170.877 105.73 152.515 114.927 138.874 130.667C125.232 146.408 117.577 166.248 118.547 179.77C119.518 193.292 130.289 206.199 129.237 204.798C128.908 204.363 124.903 204.58 119.312 201.627C112.446 197.999 104.47 190.324 99.0758 188.068C88.0491 183.465 73.1413 184.245 61.4978 173.481C49.1555 162.178 46.1542 142.203 40.2914 126.387C33.1869 107.176 16.8154 102.694 31.8219 71.0403Z" fill="#6B85F8"/>
<g opacity="0.2">
<path opacity="0.2" d="M31.8219 71.0403C33.5569 67.375 87.3748 65.5761 133.126 65.0439H133.208C153.856 64.8116 173.689 63.0801 186.188 63.6722C194.131 64.0545 198.382 66.6704 199.344 67.7048C202.411 71.0628 208.027 81.8339 186.878 95.4382C170.877 105.73 152.515 114.927 138.874 130.667C125.232 146.408 117.577 166.248 118.547 179.77C119.518 193.292 130.289 206.199 129.237 204.798C128.908 204.363 124.903 204.58 119.312 201.627C112.446 197.999 104.47 190.324 99.0758 188.068C88.0491 183.465 73.1413 184.245 61.4978 173.481C49.1555 162.178 46.1542 142.203 40.2914 126.387C33.1869 107.176 16.8154 102.694 31.8219 71.0403Z" fill="black"/>
</g>
<path opacity="0.1" d="M42.7581 133.545C41.9769 131.101 41.1875 128.695 40.2912 126.387C38.5504 121.935 36.2986 117.664 33.5732 113.644C33.5732 113.644 81.8161 102.701 95.8853 108.03C103.606 110.938 81.0021 112.775 42.7581 133.545Z" fill="black"/>
<path opacity="0.1" d="M107.545 193.598C104.396 191.237 101.427 189.101 99.0016 188.104C96.1688 186.984 93.2363 186.086 90.2361 185.42C93.3361 167.154 96.8143 154.539 105.489 146.174C111.007 140.807 97.0774 171.606 107.545 193.598Z" fill="black"/>
<path opacity="0.1" d="M46.9353 147.187C46.22 144.983 45.5375 142.757 44.855 140.531C60.4207 134.804 73.6346 126.529 73.7415 128.463C73.906 130.592 57.1398 141.085 46.9353 147.187Z" fill="black"/>
<path d="M17.5061 111.103C17.5061 111.103 13.0576 93.1139 26.6169 71.3769C27.9326 69.2632 50.8905 60.3286 66.2341 59.1518C81.5778 57.975 93.2459 62.15 111.459 64.556C129.673 66.9621 178.154 61.6178 189.88 63.8964C197.938 65.463 199.237 67.7416 199.237 67.7416C199.237 67.7416 189.822 65.0283 184.165 65.1107C161.774 65.4405 122.025 76.2565 111.599 76.1141C98.8702 75.9417 84.6942 74.8923 74.3664 77.156C62.8217 79.622 24.2652 104.47 17.5061 111.103Z" fill="#6B85F8"/>
<path d="M143.503 246.517C142.278 245.28 122.461 203.793 122.815 201.761C122.93 201.012 165.4 189.101 165.4 189.101L177.044 216.04L150.18 221.332C150.18 221.332 149.966 240.311 149.358 242.492C148.749 244.673 144.72 247.754 143.503 246.517Z" fill="#EB9481"/>
<path d="M143.503 246.517C142.969 245.97 138.841 237.657 134.409 228.333C134.121 227.718 133.825 227.096 133.537 226.474C132.772 224.885 132.024 223.274 131.276 221.677C130.988 221.055 130.709 220.433 130.454 219.818C130.174 219.203 129.886 218.581 129.631 217.982C129.196 217.052 128.809 216.138 128.382 215.246C128.118 214.661 127.863 214.084 127.609 213.529L126.877 211.88C126.515 211.071 126.178 210.299 125.857 209.557C125.635 209.062 125.421 208.567 125.224 208.095C124.829 207.181 124.476 206.341 124.18 205.592C124.015 205.217 123.875 204.842 123.752 204.535C123.431 203.71 123.193 203.036 123.061 202.586C122.968 202.345 122.921 202.092 122.922 201.836C122.922 201.567 127.929 199.715 134.433 197.384C135.354 201.791 137.303 209.744 141.012 221.632C147.064 241.173 149.818 233.505 150.131 229.637C150.131 229.6 150.131 229.562 150.131 229.525C150.131 229.757 150.131 229.997 150.131 230.229V230.282C150.131 230.709 150.131 231.144 150.09 231.571C150.048 231.998 150.09 232.516 150.09 232.988C150.09 233.737 150.048 234.547 150.007 235.304C149.966 236.061 149.958 236.803 149.917 237.47C149.917 237.882 149.917 238.28 149.859 238.654C149.859 238.849 149.859 239.029 149.859 239.217C149.859 239.404 149.859 239.704 149.81 239.966C149.81 240.476 149.744 240.933 149.695 241.323C149.703 241.413 149.703 241.503 149.695 241.593C149.662 241.907 149.61 242.22 149.539 242.53C148.692 244.658 144.72 247.746 143.503 246.517Z" fill="#1E293B"/>
<path d="M159.406 223.641L147.837 192.377C147.837 192.377 191.713 176.884 192.462 174.253C192.758 173.226 164.019 134.902 158.674 120.105C155.122 110.256 163.904 99.3728 163.904 99.3728L195.537 107.108C195.537 107.108 193.892 115.353 194.953 116.995C204.96 132.128 232.991 173.908 230.36 188.427C227.844 202.324 159.406 223.641 159.406 223.641Z" fill="#1E293B"/>
<path d="M166.256 219.601C165.006 215.973 159.677 201.304 158.173 197.676C157.745 196.627 157.35 195.578 156.873 194.543C156.471 193.494 156.004 192.465 155.476 191.463C155.468 191.45 155.456 191.44 155.442 191.435C155.427 191.429 155.411 191.429 155.396 191.433C155.381 191.438 155.369 191.447 155.361 191.459C155.353 191.472 155.35 191.486 155.352 191.5C155.589 192.466 155.882 193.419 156.232 194.356C156.536 195.308 156.865 196.252 157.194 197.197C157.836 199.063 158.502 200.944 159.168 202.781C160.483 206.409 164.825 217.772 165.918 219.713C166.009 219.871 166.321 219.788 166.256 219.601Z" fill="#334155"/>
<path d="M197.346 175.055C193.563 170.895 166.65 127.833 165.277 125.315C163.855 123.021 162.771 120.566 162.054 118.014C160.754 112.4 162.695 106.553 165.343 101.524C165.353 101.494 165.352 101.462 165.339 101.432C165.327 101.403 165.303 101.379 165.273 101.364C165.243 101.349 165.208 101.344 165.174 101.35C165.14 101.356 165.11 101.372 165.088 101.396C162.44 105.774 160.59 110.751 160.976 115.803C161.211 118.376 161.985 120.885 163.254 123.193C164.553 125.719 165.992 128.193 167.366 130.689C170.211 135.831 194.632 172.851 196.647 175.197C191.935 177.506 187.215 179.807 182.421 181.943C177.488 184.192 172.455 186.283 167.415 188.344C164.57 189.504 161.708 190.638 158.83 191.747C158.707 191.792 158.765 191.972 158.888 191.927C169.224 188.394 179.308 184.276 189.082 179.597C191.845 178.278 194.608 176.936 197.305 175.512C197.343 175.486 197.374 175.453 197.397 175.415C197.42 175.377 197.434 175.335 197.438 175.292C197.441 175.249 197.435 175.205 197.419 175.164C197.404 175.123 197.378 175.086 197.346 175.055V175.055Z" fill="#334155"/>
<path d="M188.21 167.664C180.07 155.844 162.72 131.274 158.674 120.105C155.122 110.256 163.904 99.3728 163.904 99.3728L176.082 102.371L188.21 167.664Z" fill="#334155"/>
<path d="M110.185 274.348C108.466 273.763 69.8933 245.25 69.2026 243.309C68.9148 242.56 73.1495 237.215 78.4614 230.867L78.6341 230.672C79.7277 229.36 100.835 208.77 100.835 208.77L125.652 227.928L103.73 248.818L103.376 249.193C103.376 249.193 112.775 266.125 113.309 268.329C113.844 270.533 111.829 274.933 110.185 274.348Z" fill="#EB9481"/>
<path d="M75.7973 234.03C71.7846 238.924 68.9231 242.702 69.1616 243.317C69.8934 245.273 108.425 273.756 110.185 274.348C111.945 274.94 113.852 270.525 113.318 268.352C112.997 267.01 109.379 260.197 106.6 255.077C108.359 258.683 109.716 265.991 94.2656 251.959C84.6368 243.279 78.9384 237.425 75.7973 234.03Z" fill="#1E293B"/>
<path d="M195.537 107.108C195.537 107.108 188.186 122.669 182.191 126.192C182.191 126.192 160.385 175.055 153.461 187.895C144.326 204.85 112.652 243.879 112.652 243.879L82.4741 222.974C82.4741 222.974 122.182 178.151 122.692 177.026C125.578 170.633 148.412 123.553 148.33 122.309C147.508 109.567 157.375 97.7837 157.375 97.7837L195.537 107.108Z" fill="#1E293B"/>
<path d="M182.027 126.222C181.722 126.569 181.494 126.966 181.352 127.391C181.163 127.781 180.982 128.14 180.802 128.568C180.44 129.317 180.07 130.142 179.716 130.936C178.984 132.578 178.236 134.212 177.488 135.853C176.74 137.495 175.991 139.136 175.276 140.785C174.56 142.434 173.853 144.001 173.294 145.65C173.294 145.71 173.376 145.747 173.409 145.65C174.38 144.151 175.202 142.509 176.008 140.905C176.814 139.301 177.595 137.667 178.335 136.033C179.075 134.399 179.807 132.743 180.522 131.094C180.859 130.344 181.172 129.55 181.492 128.778C181.657 128.38 181.813 127.976 181.969 127.571C182.186 127.173 182.315 126.74 182.347 126.297C182.339 126.267 182.322 126.24 182.298 126.218C182.274 126.196 182.244 126.181 182.211 126.173C182.179 126.165 182.144 126.166 182.112 126.174C182.079 126.183 182.05 126.199 182.027 126.222Z" fill="#334155"/>
<path d="M195.224 109.432C192.799 113.06 190.48 116.74 187.824 120.241C187.265 120.99 186.681 122.04 185.785 122.489C185.603 122.587 185.396 122.638 185.184 122.638C184.973 122.638 184.766 122.587 184.584 122.489C184.074 122.167 184.329 121.522 184.543 121.118C185.053 120.151 185.694 119.229 186.262 118.284C186.829 117.34 187.454 116.283 188.054 115.286C189.386 113.038 190.57 110.789 191.911 108.54C191.952 108.473 191.845 108.413 191.804 108.48C190.414 110.669 188.885 112.783 187.487 114.971L185.333 118.322L184.329 119.926C184.003 120.378 183.743 120.867 183.556 121.38C183.479 121.569 183.446 121.771 183.459 121.972C183.472 122.173 183.531 122.37 183.633 122.549C183.734 122.729 183.875 122.887 184.048 123.013C184.22 123.14 184.42 123.232 184.634 123.284C185.086 123.354 185.552 123.308 185.978 123.151C186.403 122.993 186.772 122.73 187.043 122.392C187.798 121.523 188.493 120.612 189.123 119.664C189.839 118.667 190.546 117.662 191.212 116.665C192.752 114.35 194.11 111.938 195.274 109.447C195.298 109.425 195.249 109.395 195.224 109.432Z" fill="#334155"/>
<path d="M184.453 122.826C183.853 123.284 181.567 126.019 181.427 126.169C181.287 126.319 181.756 126.507 181.821 126.447C182.881 125.326 183.856 124.141 184.741 122.901C184.757 122.856 184.502 122.781 184.453 122.826Z" fill="#334155"/>
<path d="M186.92 125.232C184.867 125.369 182.831 125.667 180.835 126.124C179.84 126.319 178.853 126.522 177.866 126.754C176.808 126.951 175.767 127.217 174.75 127.549C174.737 127.553 174.726 127.56 174.719 127.57C174.711 127.581 174.707 127.592 174.707 127.605C174.707 127.617 174.711 127.629 174.719 127.639C174.726 127.649 174.737 127.657 174.75 127.661C175.821 127.606 176.887 127.483 177.94 127.294C178.911 127.166 179.873 127.016 180.835 126.844C182.908 126.56 184.949 126.111 186.936 125.502C186.975 125.5 187.012 125.484 187.038 125.457C187.065 125.431 187.078 125.396 187.076 125.36C187.074 125.324 187.056 125.29 187.027 125.267C186.997 125.243 186.959 125.23 186.92 125.232Z" fill="#334155"/>
<path d="M115.118 236.968C111.829 234.622 98.3194 225.297 94.8165 223.086C93.8134 222.449 92.8102 221.797 91.7988 221.175C90.8132 220.52 89.7893 219.914 88.7317 219.361C88.7176 219.355 88.7015 219.353 88.6863 219.357C88.6711 219.36 88.6578 219.369 88.6489 219.381C88.64 219.392 88.6359 219.407 88.6376 219.421C88.6392 219.435 88.6463 219.448 88.6577 219.458C89.4404 220.132 90.264 220.765 91.1245 221.355C91.9468 221.977 92.8349 222.584 93.69 223.198C95.3346 224.405 97.086 225.59 98.7881 226.774C102.135 229.082 112.767 236.226 114.88 237.23C115.118 237.313 115.308 237.088 115.118 236.968Z" fill="#334155"/>
<path d="M161.273 100.415C158.728 103.501 156.819 106.983 155.64 110.691C155.069 112.518 154.673 114.386 154.456 116.275C154.209 118.397 154.365 120.578 153.634 122.632C152.797 124.73 151.845 126.789 150.78 128.8L147.763 135.097L141.818 147.599L129.845 172.702C128.891 174.718 127.954 176.742 126.844 178.698C125.757 180.589 124.503 182.397 123.094 184.102C120.159 187.723 117.018 191.208 113.992 194.761C107.882 201.904 101.74 209.002 95.7701 216.258L93.5171 219.001C93.4677 219.061 93.5171 219.144 93.6075 219.084C99.9144 212.053 106.073 204.917 112.24 197.774C115.327 194.206 118.399 190.628 121.458 187.041C122.839 185.421 124.213 183.787 125.438 182.064C126.716 180.238 127.84 178.326 128.801 176.344C132.912 168.099 136.761 159.697 140.732 151.377C144.704 143.057 148.716 134.639 152.68 126.259C153.697 124.43 154.398 122.468 154.76 120.443C154.999 118.367 155.007 116.29 155.402 114.222C156.162 110.31 157.638 106.542 159.768 103.076C160.294 102.214 160.87 101.374 161.47 100.557C161.569 100.437 161.363 100.303 161.273 100.415Z" fill="#334155"/>
<path d="M92.167 126.2L79.1443 159.465L139.38 179.06L152.403 145.796L92.167 126.2Z" fill="#455A64"/>
<path d="M92.1698 126.195L86.0371 141.86L146.273 161.456L152.406 145.791L92.1698 126.195Z" fill="#334155"/>
<path d="M86.5845 136.357L149.67 156.879L155.748 141.356L92.6619 120.833L86.5845 136.357Z" fill="#455A64"/>
<path d="M114.387 117.924L110.917 126.777L115.489 128.261L117.462 123.224L134.886 128.898L132.913 133.935L137.484 135.419L140.946 126.559L114.387 117.924Z" fill="#1E293B"/>
<path d="M135.455 156.428L139.567 157.766L142.469 150.353L138.357 149.015L135.455 156.428Z" fill="#1E293B"/>
<path d="M93.7872 142.888L97.8994 144.226L100.801 136.814L96.6891 135.476L93.7872 142.888Z" fill="#1E293B"/>
<path d="M194.123 76.099C204.508 91.4873 217.664 105.586 223.725 105.691C231.882 105.834 249.215 98.1957 257.833 93.4286C260.357 92.0419 248.08 74.3301 245.375 75.8142C242.086 77.6056 225.369 87.1399 224.991 87.2223C224.169 87.4022 205.355 75.6942 200.931 72.7935C193.539 67.9589 189.518 69.2706 194.123 76.099Z" fill="#EB9481"/>
<path d="M270.339 85.7235C267.223 89.1789 257.799 93.9686 255.045 94.3284C252.29 94.6881 242.818 80.3717 243.845 77.9357C244.873 75.4996 256.377 64.6162 261.278 63.6942C266.178 62.7723 273.571 82.1407 270.339 85.7235Z" fill="#EB9481"/>
<path d="M254.083 66.4975C253.705 68.8436 256.953 67.9066 256.953 67.9066C256.953 67.9066 252.636 70.2902 253.277 72.8462C253.919 75.4022 257.783 74.0455 258.063 73.9555C257.833 74.0829 253.951 76.3691 254.856 78.8726C255.76 81.3761 259.485 79.6221 259.724 79.4797C259.551 79.6596 257.306 82.1031 258.49 83.8646C260.53 86.8628 266.45 80.7839 269.599 80.7315C269.599 80.7315 270.315 85.5811 270.364 85.7235C270.364 85.7235 276.12 80.0194 275.816 76.1517C275.78 75.5888 275.533 75.0541 275.117 74.6367C274.701 74.2194 274.141 73.9445 273.53 73.8581C273.53 73.8581 275.61 72.2016 274.944 70.2078C274.599 69.1884 272.477 68.7761 272.477 68.7761C272.926 68.3796 273.246 67.8782 273.402 67.3269C273.559 66.7756 273.546 66.1956 273.365 65.6505C272.798 64.2563 270.783 64.0689 270.783 64.0689C270.783 64.0689 271.647 62.0826 270.561 60.8309C268.382 58.3049 254.905 61.4755 254.083 66.4975Z" fill="#EB9481"/>
<path d="M270.463 63.9937C270.512 63.9937 270.512 63.9263 270.463 63.9263C265.551 63.9658 260.768 65.3642 256.747 67.9364C256.624 68.0263 256.747 68.2437 256.878 68.1762C261.159 66.1865 265.735 64.7775 270.463 63.9937V63.9937Z" fill="#1E293B"/>
<path d="M272.534 68.7381C272.584 68.7381 272.576 68.6482 272.534 68.6482C267.117 68.7437 261.915 70.605 257.873 73.8951C257.733 74.015 257.742 74.2474 257.873 74.1199C260.751 71.9912 268.061 69.4127 272.534 68.7381Z" fill="#1E293B"/>
<path d="M259.51 79.8097C263.498 76.6391 268.201 74.9452 273.308 73.8133C273.373 73.8133 273.308 73.7159 273.308 73.7159C270.652 73.6335 267.478 74.6453 265.085 75.6272C262.842 76.4935 260.888 77.8815 259.419 79.6523C259.329 79.7572 259.428 79.8772 259.51 79.8097Z" fill="#1E293B"/>
<path d="M256.928 67.9065C256.148 68.4332 255.421 69.0227 254.757 69.6679C254.087 70.2718 253.604 71.0271 253.359 71.8566C253.266 72.2422 253.333 72.6457 253.548 72.9884C253.773 73.3307 254.09 73.6147 254.469 73.8129C254.863 73.9842 255.293 74.0774 255.729 74.0865C256.166 74.0955 256.6 74.0202 257.002 73.8654L259.008 73.1908L257.364 74.4576C256.636 75.0161 256.014 75.6795 255.522 76.4214C255.274 76.7517 255.105 77.1262 255.027 77.5203C254.949 77.9143 254.963 78.319 255.07 78.7075C255.173 79.0689 255.408 79.3873 255.737 79.6096C256.067 79.8319 256.469 79.9447 256.879 79.9293C257.789 79.8778 258.671 79.6201 259.444 79.1797L261.615 78.0029L259.97 79.7569C259.515 80.244 259.13 80.7833 258.827 81.3609C258.518 81.8945 258.389 82.4996 258.457 83.0999C258.504 83.3684 258.629 83.6205 258.82 83.8291C259.011 84.0377 259.261 84.195 259.543 84.2842C260.208 84.3883 260.893 84.3181 261.516 84.0818C262.874 83.5822 264.188 82.9883 265.447 82.3054C266.088 81.9831 266.746 81.6532 267.412 81.3534C268.062 81.0188 268.782 80.8144 269.525 80.7538C268.803 80.88 268.116 81.1347 267.502 81.5033C266.869 81.8406 266.253 82.2154 265.636 82.5827C264.407 83.3616 263.099 84.0318 261.73 84.584C260.994 84.8958 260.174 85.0052 259.37 84.8988C258.947 84.7913 258.567 84.5751 258.276 84.276C257.984 83.977 257.793 83.6077 257.726 83.2123C257.618 82.4673 257.758 81.71 258.128 81.0386C258.454 80.3911 258.868 79.784 259.362 79.2322L259.913 79.8094C259.013 80.3599 257.969 80.6832 256.887 80.7463C256.295 80.7596 255.716 80.5906 255.242 80.2666C254.79 79.9245 254.458 79.4682 254.288 78.9549C254.153 78.4618 254.134 77.9481 254.233 77.4479C254.332 76.9477 254.547 76.4725 254.864 76.0541C255.413 75.2443 256.108 74.5246 256.92 73.9254L257.298 74.5175C256.79 74.6902 256.247 74.7608 255.706 74.7246C255.166 74.6883 254.64 74.5461 254.165 74.3077C253.712 74.0359 253.342 73.6647 253.088 73.2283C252.837 72.782 252.773 72.2679 252.907 71.7817C253.219 70.909 253.788 70.1312 254.552 69.533C255.274 68.9108 256.071 68.3651 256.928 67.9065Z" fill="#1E293B"/>
<path d="M245.449 75.7697C245.449 75.7697 251.287 57.5407 257.989 63.1098C259.979 64.7663 265.981 73.7309 264.032 74.8628C261.508 76.3619 258.235 73.0189 256.541 70.6353C256.541 70.6353 255.514 77.0964 250.374 77.7785C249.43 77.8911 248.47 77.763 247.6 77.4084C246.731 77.0538 245.986 76.4866 245.449 75.7697V75.7697Z" fill="#EB9481"/>
<path d="M257.372 62.6824C258.237 63.2472 259.007 63.9239 259.658 64.6912C260.324 65.4457 260.939 66.2367 261.5 67.0597C262.637 68.7061 263.617 70.439 264.427 72.2391C264.641 72.7187 264.779 73.2234 264.838 73.7382C264.871 74.0347 264.832 74.3342 264.723 74.6152C264.607 74.9275 264.374 75.1928 264.065 75.3648C263.522 75.6687 262.877 75.7857 262.248 75.6946C261.67 75.602 261.114 75.4195 260.603 75.1549C259.665 74.6325 258.831 73.9685 258.137 73.1911C257.437 72.4488 256.799 71.6596 256.229 70.83L256.903 70.6876C256.754 71.4193 256.531 72.1369 256.237 72.8313C255.95 73.5229 255.587 74.1859 255.152 74.8101C254.71 75.4294 254.173 75.9873 253.556 76.4666C252.943 76.9379 252.237 77.299 251.476 77.531C252.181 77.2192 252.823 76.801 253.376 76.2942C253.917 75.7843 254.379 75.2093 254.749 74.5852C255.124 73.9696 255.433 73.3219 255.67 72.6514C255.904 71.9844 256.072 71.2996 256.171 70.6051L256.278 69.7431L256.846 70.4927C257.428 71.2808 258.068 72.032 258.761 72.7413C259.416 73.4405 260.191 74.038 261.056 74.5103C261.423 74.745 261.85 74.8902 262.296 74.9322C262.742 74.9741 263.193 74.9115 263.605 74.7501C264.238 74.4428 263.983 73.4084 263.654 72.5614C263.3 71.6715 262.896 70.7984 262.445 69.9455C261.993 69.0835 261.541 68.2215 261.039 67.382C260.091 65.6517 258.854 64.0662 257.372 62.6824Z" fill="#1E293B"/>
<path d="M233.287 82.1934L243.064 102.169C243.064 102.169 227.227 107.258 222.063 105.594C216.899 103.93 202.329 89.8988 195.381 79.0228C188.432 68.1468 192.527 66.7227 203.998 74.0758C215.469 81.4289 224.555 86.5933 224.892 86.4583C225.229 86.3234 233.287 82.1934 233.287 82.1934Z" fill="#EBEBEB"/>
<path d="M230.08 85.139C230.08 85.079 229.941 85.139 229.957 85.184C232.025 91.1056 234.443 96.9207 237.201 102.604C237.201 102.663 237.349 102.604 237.325 102.559C235.261 96.6357 232.843 90.8205 230.08 85.139V85.139Z" fill="#1E293B"/>
<path d="M213.315 99.4403C207.147 93.9686 199.747 85.8659 195.381 79.0225C189.765 70.2228 191.376 67.6068 198.283 70.8374L213.315 99.4403Z" fill="#C7C7C7"/>
<path d="M197.091 101.816L195.446 113.517C195.446 113.517 168.574 111.073 154.727 100.287C154.727 100.287 169.528 73.2509 184.535 67.4493C192.05 64.5411 197.782 67.3594 199.813 72.4039C200.331 73.6781 206.103 87.9646 204.697 93.6986C203.48 98.7506 197.091 101.816 197.091 101.816Z" fill="#EBEBEB"/>
<path d="M196.524 74.8324L196.474 74.6225V74.5401C196.474 74.5401 196.524 74.5026 196.532 74.5401L196.589 74.6375C196.647 74.7725 196.705 74.9074 196.754 75.0423C196.853 75.3121 196.935 75.5895 197.017 75.8668C197.182 76.414 197.33 76.9761 197.469 77.5308C197.749 78.6476 197.938 79.7794 198.111 80.9113C198.449 83.186 198.562 85.4839 198.448 87.7771C198.358 90.088 197.904 92.3751 197.099 94.5681C196.324 96.7932 194.934 98.7989 193.062 100.392L193.119 100.31C192.363 102.371 191.574 104.417 190.776 106.463L189.559 109.522C189.14 110.533 188.737 111.56 188.21 112.52C188.687 111.523 189.033 110.489 189.427 109.462L190.546 106.373L192.7 100.175V100.13L192.741 100.092C194.43 98.4609 195.678 96.4922 196.384 94.3432C197.094 92.191 197.519 89.969 197.65 87.7247C197.779 85.4762 197.74 83.2224 197.535 80.9787C197.436 79.8544 197.272 78.7301 197.108 77.6058C197.025 77.0361 196.927 76.4814 196.82 75.9193L196.631 75.0873C196.631 74.9448 196.565 74.8099 196.524 74.675C196.526 74.6426 196.526 74.61 196.524 74.5776C196.524 74.5776 196.524 74.63 196.524 74.6525V74.8324Z" fill="#1E293B"/>
<path d="M204.261 85.0112L204.162 84.6439C204.182 84.1658 204.16 83.6872 204.097 83.2123C204.01 82.6357 203.861 82.0682 203.653 81.5183C203.653 81.4808 203.587 81.5183 203.595 81.5183C203.793 82.3151 203.925 83.1244 203.99 83.9393C203.565 82.2785 203.002 80.6497 202.304 79.0673C202.304 79.0573 202.3 79.0478 202.292 79.0408C202.284 79.0337 202.274 79.0298 202.263 79.0298C202.252 79.0298 202.242 79.0337 202.234 79.0408C202.226 79.0478 202.222 79.0573 202.222 79.0673C202.765 81.0461 203.34 83.0174 203.801 85.0112C204.261 87.005 204.623 89.0063 205.001 91.0076C205.001 91.0825 205.149 91.06 205.141 91.0076C205.045 88.9888 204.75 86.982 204.261 85.0112V85.0112Z" fill="#1E293B"/>
<path d="M196.326 80.536C196.334 80.6857 196.293 80.8341 196.208 80.9622C196.123 81.0903 195.997 81.1921 195.848 81.2547C195.699 81.3172 195.532 81.3375 195.37 81.3129C195.208 81.2884 195.058 81.2201 194.939 81.1169C194.819 81.0138 194.737 80.8804 194.702 80.7341C194.666 80.5878 194.68 80.4352 194.741 80.296C194.802 80.1569 194.907 80.0375 195.043 79.9534C195.179 79.8692 195.34 79.8242 195.504 79.824C195.715 79.8237 195.918 79.8975 196.071 80.0301C196.224 80.1627 196.316 80.3438 196.326 80.536Z" fill="#1E293B"/>
<path d="M195.726 88.1069C196.162 88.1069 196.515 87.7847 196.515 87.3873C196.515 86.9899 196.162 86.6677 195.726 86.6677C195.29 86.6677 194.937 86.9899 194.937 87.3873C194.937 87.7847 195.29 88.1069 195.726 88.1069Z" fill="#1E293B"/>
<path d="M191.335 100.093C191.771 100.093 192.124 99.7706 192.124 99.3732C192.124 98.9757 191.771 98.6536 191.335 98.6536C190.899 98.6536 190.546 98.9757 190.546 99.3732C190.546 99.7706 190.899 100.093 191.335 100.093Z" fill="#1E293B"/>
<path d="M189 106.411C189.436 106.411 189.789 106.089 189.789 105.691C189.789 105.294 189.436 104.972 189 104.972C188.564 104.972 188.21 105.294 188.21 105.691C188.21 106.089 188.564 106.411 189 106.411Z" fill="#1E293B"/>
<path d="M194.747 94.2458C195.183 94.2458 195.537 93.9236 195.537 93.5262C195.537 93.1288 195.183 92.8066 194.747 92.8066C194.311 92.8066 193.958 93.1288 193.958 93.5262C193.958 93.9236 194.311 94.2458 194.747 94.2458Z" fill="#1E293B"/>
<path d="M180.72 66.1304C161.174 66.1979 145.855 69.9831 142.303 74.0382C139.367 77.3812 130.273 92.0274 126.433 100.947C125.356 103.451 147.278 112.408 148.059 109.619C149.276 105.302 159.258 84.397 159.365 84.0597C159.579 83.3101 179.207 75.972 184.222 74.3155C193.424 71.1599 191.08 66.0704 180.72 66.1304Z" fill="#EB9481"/>
<path d="M133.784 133.005C133.073 132.914 132.41 132.627 131.884 132.182C131.357 131.737 130.993 131.156 130.84 130.517C129.745 131.005 128.497 131.127 127.313 130.861C125.257 130.314 125.298 127.114 125.298 127.114C124.047 127.403 122.729 127.343 121.516 126.941C119.6 126.229 119.148 123.006 119.148 123.006C117.836 122.695 116.692 121.963 115.924 120.945C113.992 118.156 116.401 113.614 117.898 110.713C119.394 107.813 126.622 100.857 127.847 99.4102L148.404 108.008C148.404 108.008 145.748 122.759 143.471 125.944C141.481 128.628 136.498 133.252 133.784 133.005Z" fill="#EB9481"/>
<path d="M131.235 130.524C134.039 128.125 135.914 125.097 137.97 122.174C138.011 122.106 137.904 122.039 137.854 122.106C135.848 125.037 133.225 127.571 131.095 130.419C131.08 130.436 131.073 130.457 131.075 130.479C131.077 130.501 131.089 130.521 131.108 130.535C131.126 130.549 131.15 130.556 131.174 130.553C131.198 130.551 131.22 130.541 131.235 130.524Z" fill="#1E293B"/>
<path d="M125.602 127.173C126.181 126.573 126.67 125.905 127.058 125.187C127.518 124.438 127.962 123.688 128.398 122.939C129.269 121.439 130.108 119.94 130.865 118.381C130.865 118.314 130.791 118.254 130.75 118.321C129.878 119.82 128.99 121.32 128.044 122.751C127.576 123.501 127.099 124.205 126.622 124.932C126.114 125.586 125.689 126.29 125.355 127.031C125.335 127.061 125.328 127.097 125.336 127.131C125.345 127.166 125.368 127.196 125.401 127.215C125.433 127.234 125.473 127.24 125.511 127.232C125.549 127.224 125.581 127.203 125.602 127.173V127.173Z" fill="#1E293B"/>
<path d="M119.18 122.953C119.697 122.404 120.106 121.778 120.389 121.102C120.776 120.412 121.154 119.723 121.549 119.033C122.371 117.662 123.103 116.29 123.941 114.941C123.95 114.927 123.952 114.91 123.948 114.895C123.943 114.879 123.932 114.866 123.917 114.858C123.901 114.85 123.883 114.848 123.866 114.852C123.849 114.857 123.835 114.867 123.826 114.881C123.004 116.245 122.099 117.594 121.261 118.973C120.85 119.64 120.439 120.323 120.036 120.997C119.607 121.586 119.292 122.237 119.106 122.923C119.106 122.923 119.156 122.976 119.18 122.953Z" fill="#1E293B"/>
<path d="M153.173 99.7777L131.087 89.8462C131.087 89.8462 138.413 74.7877 142.862 71.8569C147.31 68.9262 166.247 65.8605 180.037 65.9805C194.057 66.1079 194.632 71.1524 181.459 75.5222C168.287 79.8921 159.817 83.8722 159.743 84.2095C159.669 84.5468 153.173 99.7777 153.173 99.7777Z" fill="#EBEBEB"/>
<path d="M154.399 97.4543C155.361 95.3556 159.858 84.3297 160.006 84.2398C160.319 84.0599 165.36 81.8262 166.856 81.1591C168.122 80.597 169.405 80.0573 170.688 79.5176C171.773 79.3077 172.867 79.0979 173.928 78.7681C173.94 78.7638 173.951 78.7561 173.959 78.7461C173.966 78.736 173.971 78.7241 173.971 78.7119C173.971 78.6996 173.966 78.6877 173.959 78.6776C173.951 78.6676 173.94 78.6599 173.928 78.6556C173.173 78.7475 172.426 78.8852 171.691 79.0679L175.909 77.3064C175.909 77.3064 175.909 77.254 175.909 77.2615C172.727 78.2734 159.686 83.5502 159.661 83.7301C159.636 83.91 154.316 96.9596 154.283 97.222C154.226 97.3644 154.374 97.5143 154.399 97.4543Z" fill="#1E293B"/>
<path d="M153.173 94.3211C153.247 94.3211 153.297 94.2386 153.231 94.2087C147.233 91.2544 141.062 88.602 134.746 86.2634C134.672 86.2634 134.623 86.3384 134.688 86.3759C140.689 89.3256 146.859 91.9779 153.173 94.3211V94.3211Z" fill="#1E293B"/>
<path d="M191.072 67.2919C191.072 68.0415 193.539 73.5956 197.173 74.2777C198.365 74.4951 199.969 68.6336 199.969 68.6336L200.199 68.2288L203.373 62.5098L196.836 56.1386L195.874 55.2766C195.874 55.2766 195.126 56.8881 194.229 58.9119C194.188 59.0019 194.139 59.0918 194.098 59.1968C194.057 59.3017 193.991 59.4141 193.941 59.5266C193.802 59.8264 193.654 60.1262 193.522 60.441C193.391 60.7558 193.317 60.8982 193.218 61.1906L192.905 61.9401C192.167 63.6856 191.554 65.4734 191.072 67.2919Z" fill="#EB9481"/>
<path d="M194.205 58.9119C194.402 60.7685 195.041 62.5636 196.076 64.1725C197.111 65.7814 198.518 67.1656 200.199 68.2288L203.373 62.5098L196.836 56.1386L195.874 55.2766C195.874 55.2766 195.126 56.8881 194.205 58.9119Z" fill="#1E293B"/>
<path d="M214.564 51.2893C217.031 62.3002 210.074 64.8936 207.476 65.3734C205.108 65.8156 196.992 67.0374 193.284 56.3113C189.575 45.5852 194.418 41.0655 199.771 39.8212C205.124 38.577 212.097 40.2784 214.564 51.2893Z" fill="#EB9481"/>
<path d="M210.502 57.428C210.268 57.9419 209.894 58.3932 209.417 58.7397C209.146 58.9186 208.822 59.0179 208.488 59.0245C207.764 59.0245 207.575 58.4624 207.559 57.9452C207.551 57.6709 207.579 57.3967 207.641 57.1282C208.535 57.5029 209.538 57.608 210.502 57.428V57.428Z" fill="#1E293B"/>
<path d="M209.425 58.7401C209.154 58.919 208.83 59.0183 208.496 59.025C207.772 59.025 207.583 58.4628 207.567 57.9456C207.93 57.8663 208.311 57.9018 208.649 58.0462C208.986 58.1905 209.26 58.4352 209.425 58.7401Z" fill="#FF9BBC"/>
<path d="M211.662 48.5979C211.388 48.6118 211.113 48.6118 210.839 48.5979C210.54 48.6344 210.237 48.579 209.976 48.4405C209.901 48.3837 209.849 48.3051 209.83 48.2178C209.81 48.1305 209.824 48.0398 209.869 47.9608C209.978 47.8154 210.128 47.6997 210.303 47.6258C210.478 47.5519 210.672 47.5226 210.864 47.541C211.262 47.5232 211.653 47.6377 211.966 47.8633C212.028 47.9226 212.071 47.9967 212.089 48.0772C212.107 48.1578 212.1 48.2413 212.068 48.3182C212.036 48.3951 211.981 48.4622 211.909 48.5117C211.837 48.5612 211.751 48.5911 211.662 48.5979Z" fill="#1E293B"/>
<path d="M203.924 51.0941C204.2 51.0824 204.475 51.0523 204.746 51.0042C205.041 51.0064 205.33 50.9223 205.569 50.7643C205.634 50.6992 205.674 50.6163 205.683 50.5283C205.692 50.4403 205.669 50.3521 205.618 50.2771C205.49 50.1445 205.326 50.0449 205.143 49.9884C204.96 49.9318 204.763 49.9202 204.574 49.9548C204.177 49.9789 203.803 50.1334 203.521 50.3896C203.46 50.4543 203.421 50.5344 203.41 50.6195C203.399 50.7046 203.416 50.7907 203.46 50.8667C203.503 50.9426 203.571 51.0049 203.654 51.0455C203.736 51.0861 203.831 51.103 203.924 51.0941V51.0941Z" fill="#1E293B"/>
<path d="M206.235 53.2307C206.235 53.2307 206.186 53.2832 206.194 53.3132C206.408 54.0627 206.515 54.9322 205.832 55.3369C205.832 55.3369 205.832 55.3819 205.832 55.3744C206.729 55.0671 206.573 53.9053 206.235 53.2307Z" fill="#1E293B"/>
<path d="M205.314 52.6381C203.973 52.818 204.491 55.2466 205.717 55.0742C206.942 54.9018 206.432 52.4508 205.314 52.6381Z" fill="#1E293B"/>
<path d="M204.812 52.826C204.607 52.9984 204.434 53.2833 204.154 53.3582C203.875 53.4332 203.538 53.2308 203.274 53.0209C203.357 53.4856 203.653 53.9279 204.22 53.9054C204.787 53.8829 205.001 53.4107 205.042 52.916C205.001 52.8635 204.894 52.7511 204.812 52.826Z" fill="#1E293B"/>
<path d="M210.716 52.1885C210.716 52.1885 210.79 52.1885 210.79 52.2409C210.913 52.9905 211.201 53.8525 211.99 53.9799C211.061 54.0549 210.699 52.923 210.716 52.1885Z" fill="#1E293B"/>
<path d="M211.324 51.2814C212.632 50.9666 213.216 53.3802 212.007 53.665C210.798 53.9499 210.198 51.5363 211.324 51.2814Z" fill="#1E293B"/>
<path d="M211.892 51.3265C212.13 51.409 212.393 51.6039 212.648 51.5664C212.903 51.5289 213.092 51.2216 213.216 50.9368C213.216 50.9368 213.216 50.9368 213.265 50.9368C213.388 51.394 213.339 51.9112 212.87 52.0985C212.402 52.2859 212.048 51.9337 211.793 51.4989C211.752 51.439 211.793 51.289 211.892 51.3265Z" fill="#1E293B"/>
<path d="M210.346 55.8241C210.346 55.8241 210.765 56.9109 210.88 57.4431C210.88 57.4956 210.757 57.5405 210.56 57.5855C210.08 57.7594 209.557 57.8094 209.047 57.7301C208.538 57.6507 208.063 57.4451 207.674 57.1358C207.661 57.1278 207.651 57.1155 207.648 57.1014C207.645 57.0873 207.648 57.0727 207.657 57.0608C207.666 57.0489 207.679 57.0406 207.695 57.0378C207.71 57.035 207.726 57.0379 207.739 57.0458C208.58 57.3745 209.516 57.4429 210.404 57.2407C210.404 57.0908 209.622 55.3968 209.713 55.3743C210.169 55.319 210.63 55.319 211.086 55.3743C210.264 53.1257 209.096 50.9295 208.34 48.6284C208.34 48.5459 208.447 48.4934 208.488 48.5609C209.841 50.8395 210.942 53.2348 211.777 55.7116C211.884 56.0489 210.601 55.869 210.346 55.8241Z" fill="#1E293B"/>
<path d="M194.361 57.6678C196.4 57.323 195.742 53.4104 195.742 53.4104C195.742 53.4104 199.796 52.436 199.591 46.8068C199.934 48.4252 199.754 50.0997 199.073 51.6265C199.073 51.6265 206.013 49.2129 207.427 43.0366C207.427 43.0366 207.04 46.1023 206.202 47.3615C207.867 46.4194 209.131 44.9895 209.787 43.3064C209.787 43.3064 211.958 46.1472 213.166 46.7769C213.166 46.7769 212.772 40.8704 209.326 38.6592C202.057 34.0045 195.019 41.6124 195.019 41.6124C195.019 41.6124 190.348 43.5838 189.674 47.384C188.638 53.2455 194.361 57.6678 194.361 57.6678Z" fill="#1E293B"/>
<path d="M195.775 56.6112C195.775 56.6112 192.831 53.2757 191.154 54.2501C189.477 55.2246 191.869 60.1866 193.966 60.7488C194.229 60.8395 194.51 60.8807 194.791 60.8698C195.072 60.8589 195.347 60.7962 195.601 60.6855C195.854 60.5749 196.081 60.4184 196.266 60.2258C196.452 60.0331 196.592 59.8081 196.68 59.5645L195.775 56.6112Z" fill="#EB9481"/>
<path d="M191.878 55.6367V55.6817C193.358 56.1239 194.196 57.2932 194.821 58.515C194.727 58.3898 194.605 58.2844 194.462 58.2062C194.32 58.128 194.16 58.0787 193.995 58.0616C193.83 58.0445 193.662 58.0601 193.504 58.1073C193.346 58.1545 193.201 58.2322 193.078 58.3351C193.073 58.3424 193.071 58.3507 193.071 58.3592C193.072 58.3677 193.074 58.3759 193.08 58.383C193.085 58.39 193.092 58.3956 193.1 58.3991C193.109 58.4025 193.118 58.4037 193.128 58.4026C193.375 58.3151 193.645 58.2991 193.903 58.3568C194.16 58.4144 194.392 58.5429 194.566 58.7249C194.851 59.034 195.102 59.3679 195.315 59.7217C195.389 59.8342 195.619 59.7218 195.561 59.6243C195.446 57.9528 193.851 55.7042 191.878 55.6367Z" fill="#1E293B"/>
<path d="M199.953 68.7463L196.524 73.1012L191.59 65.5232L189.197 67.0673C189.197 67.0673 193.046 78.2206 193.202 77.7934L196.491 74.113L198.875 77.7109L200.569 70.3728L199.953 68.7463Z" fill="#EBEBEB"/>
<path d="M199.928 74.1278C200.158 72.906 200.438 71.6842 200.61 70.455C200.61 70.455 200.544 70.38 200.52 70.455C199.944 71.5568 199.073 76.2265 198.777 77.3284C198.678 77.171 196.532 74.1203 196.491 74.1578C195.841 74.7124 193.424 77.3883 193.243 77.6432C192.634 75.8667 190.233 69.3981 189.419 67.6591C189.419 67.6142 189.312 67.6591 189.329 67.6591C189.789 69.4955 192.938 78.1978 193.021 78.1978C194.25 76.9539 195.408 75.6529 196.491 74.3002C197.216 75.6241 198.041 76.9013 198.957 78.1229C199.355 76.8072 199.679 75.4737 199.928 74.1278Z" fill="#1E293B"/>
<path d="M191.944 65.5456C191.352 64.2713 189.756 66.9547 191.023 68.5438C192.897 70.8524 196.441 73.5883 197.223 73.6032C198.004 73.6182 200.512 70.7624 200.832 70.1403C201.153 69.5182 200.446 68.124 200.199 68.2589C199.953 68.3939 197.782 71.4295 197.477 71.572C197.173 71.7144 193.235 68.2814 191.944 65.5456Z" fill="#6B85F8"/>
</svg>
